<svg width="15" height="16" viewBox="0 0 15 16" fill="none" xmlns="http://www.w3.org/2000/svg">
<path d="M14.5 5.09968V7.71651C12.5441 8.47975 10.1147 8.91588 7.5 8.91588C4.88529 8.91588 2.45588 8.47975 0.5 7.71651V5.09968C0.5 4.61993 0.870588 4.22741 1.32353 4.22741H4.72059V3.5732C4.72059 2.57009 5.50294 1.71962 6.47059 1.71962H8.52941C9.49706 1.71962 10.2794 2.57009 10.2794 3.5732V4.22741H13.6765C14.1294 4.22741 14.5 4.61993 14.5 5.09968ZM5.75 3.5732V4.22741H9.25V3.5732C9.25 3.15887 8.92059 2.80996 8.52941 2.80996H6.47059C6.07941 2.80996 5.75 3.15887 5.75 3.5732ZM6.47059 7.56386V8C6.47059 8.13084 6.55294 8.21806 6.67647 8.21806H8.32353C8.44706 8.21806 8.52941 8.13084 8.52941 8V7.56386C8.52941 7.43302 8.44706 7.34579 8.32353 7.34579H6.67647C6.55294 7.34579 6.47059 7.43302 6.47059 7.56386ZM0.5 13.4081V8.6542C2.47647 9.37383 4.88529 9.78816 7.5 9.78816C10.1147 9.78816 12.5235 9.37383 14.5 8.6542V13.4081C14.5 13.8878 14.1294 14.2804 13.6765 14.2804H1.32353C0.870588 14.2804 0.5 13.8878 0.5 13.4081ZM8.52941 11.162V10.7259C8.52941 10.595 8.44706 10.5078 8.32353 10.5078H6.67647C6.55294 10.5078 6.47059 10.595 6.47059 10.7259V11.162C6.47059 11.2928 6.55294 11.3801 6.67647 11.3801H8.32353C8.44706 11.3801 8.52941 11.2928 8.52941 11.162Z" fill="#00BABA"/>
</svg>
