<svg width="51" height="50" viewBox="0 0 51 50" fill="none" xmlns="http://www.w3.org/2000/svg">
<g clip-path="url(#clip0_99_71)">
<path d="M41.2093 38.2055C40.8051 38.2055 40.4775 38.5331 40.4775 38.9372V41.184H10.2976V27.6671C11.7109 27.6683 13.763 27.6693 16.748 27.6703C16.8123 27.6703 16.8752 27.6963 16.9205 27.7418L20.0496 30.8708C20.655 31.5169 21.8202 31.0305 21.7907 30.1498V27.6703H21.8014C23.2808 27.6703 24.4845 26.4667 24.4845 24.9872V6.67705C24.4845 5.19756 23.2808 3.99395 21.8014 3.99395H10.2975V2.68311C10.2975 2.01064 10.8445 1.46348 11.5171 1.46348H30.5917C30.9959 1.46348 31.3234 1.13584 31.3234 0.731738C31.3234 0.327637 30.9959 0 30.5917 0H11.5172C10.0377 0 8.83408 1.20361 8.83408 2.68311V3.99395H7.39404C5.91465 3.99395 4.71094 5.19756 4.71094 6.67705V9.77275C4.71094 10.1769 5.03848 10.5045 5.44268 10.5045C5.84687 10.5045 6.17441 10.1769 6.17441 9.77275V6.67705C6.17441 6.00459 6.72148 5.45742 7.39404 5.45742H21.8015C22.4739 5.45742 23.0211 6.00449 23.0211 6.67705V24.9872C23.0211 25.6597 22.474 26.2068 21.8015 26.2068H21.4493C20.8307 26.2068 20.3272 26.7102 20.3272 27.3289V29.0788L17.9555 26.707C17.633 26.3845 17.2042 26.2068 16.7482 26.2068C14.233 26.2061 7.73398 26.2029 7.25908 26.1985C6.63906 26.1311 6.17451 25.6144 6.17451 24.9873V13.2475C6.17451 12.8434 5.84697 12.5157 5.44277 12.5157C5.03857 12.5157 4.71104 12.8434 4.71104 13.2475V24.9872C4.71104 26.3846 5.75996 27.5329 7.15098 27.6584V27.6581C7.20312 27.661 7.41807 27.6634 8.83408 27.6654V47.3169C8.83408 48.7964 10.0378 50 11.5172 50H39.258C40.7374 50 41.9411 48.7964 41.9411 47.3169V38.9372C41.941 38.533 41.6135 38.2055 41.2093 38.2055ZM40.4775 47.3169C40.4775 47.9894 39.9305 48.5365 39.2579 48.5365H11.5172C10.8447 48.5365 10.2976 47.9895 10.2976 47.3169V42.6476H40.4775V47.3169Z" fill="#00BABA"/>
<path d="M23.0286 46.5191H27.7485C28.1527 46.5191 28.4803 46.1915 28.4803 45.7874C28.4803 45.3833 28.1527 45.0557 27.7485 45.0557H23.0286C22.6244 45.0557 22.2969 45.3833 22.2969 45.7874C22.2969 46.1915 22.6244 46.5191 23.0286 46.5191Z" fill="#00BABA"/>
<path d="M44.1062 12.5157H41.941V2.68311C41.9409 1.20361 40.7373 0 39.2578 0H34.3891C33.9849 0 33.6573 0.327637 33.6573 0.731738C33.6573 1.13584 33.9849 1.46348 34.3891 1.46348H39.2578C39.9303 1.46348 40.4774 2.01055 40.4774 2.68311V12.5157H29.6987C28.2193 12.5157 27.0156 13.7193 27.0156 15.1988V33.509C27.0156 34.9885 28.2193 36.1921 29.6987 36.1921H29.7095V38.7356C29.6802 39.6165 30.845 40.1024 31.4505 39.4567L34.6437 36.2635C34.6897 36.2175 34.7511 36.1921 34.816 36.1921H44.1061C45.5855 36.1921 46.7893 34.9885 46.7893 33.509V15.1988C46.7894 13.7193 45.5856 12.5157 44.1062 12.5157ZM45.3258 33.509C45.3258 34.1814 44.7787 34.7286 44.1061 34.7286H34.8159C34.3599 34.7287 33.9312 34.9063 33.6088 35.2287L31.1729 37.6646V35.8506C31.1729 35.232 30.6696 34.7287 30.0509 34.7285H29.6986C29.0262 34.7285 28.479 34.1814 28.479 33.5089V15.1988C28.479 14.5264 29.0261 13.9792 29.6986 13.9792H44.1061C44.7786 13.9792 45.3258 14.5263 45.3258 15.1988V33.509Z" fill="#00BABA"/>
<path d="M16.4203 18.9526H12.7946C12.6982 18.9526 12.6304 19.0483 12.6622 19.1394C12.9435 19.9437 13.7072 20.5212 14.6075 20.5212C15.5078 20.5212 16.2714 19.9437 16.5527 19.1394C16.5844 19.0483 16.5166 18.9526 16.4203 18.9526Z" fill="#00BABA"/>
<path d="M16.9341 15.2231C16.4894 15.2231 16.1289 15.5837 16.1289 16.0283C16.1289 16.473 16.4895 16.8335 16.9341 16.8335C17.3787 16.8335 17.7393 16.473 17.7393 16.0283C17.7393 15.5836 17.3788 15.2231 16.9341 15.2231Z" fill="#00BABA"/>
<path d="M13.085 16.0283C13.085 15.5836 12.7244 15.2231 12.2798 15.2231C11.8351 15.2231 11.4746 15.5837 11.4746 16.0283C11.4746 16.473 11.8352 16.8335 12.2798 16.8335C12.7244 16.8336 13.085 16.473 13.085 16.0283Z" fill="#00BABA"/>
<path d="M18.8801 7.66064H10.3956C9.38857 7.66064 8.56934 8.47988 8.56934 9.48691V14.3858C7.76562 14.4759 7.13867 15.1597 7.13867 15.9871V16.5443C7.13867 17.6436 7.83369 18.6117 8.83994 18.9823C9.14902 19.9981 9.71142 20.9145 10.4806 21.6502L11.7212 22.8368C12.5391 23.6191 13.5884 24.0103 14.638 24.0102C15.6873 24.0102 16.737 23.6189 17.5547 22.8368L18.7953 21.6502C19.5645 20.9144 20.1269 19.9981 20.4358 18.9824C21.4422 18.6118 22.1372 17.6437 22.1372 16.5443V15.9871C22.1372 15.1597 21.5103 14.4759 20.7065 14.3858V9.48691C20.7064 8.47988 19.8871 7.66064 18.8801 7.66064ZM10.0342 9.48691C10.0342 9.2876 10.1963 9.12549 10.3956 9.12549H18.8801C19.0794 9.12549 19.2416 9.2876 19.2416 9.48691V11.5236C17.8169 10.8945 16.2448 10.5655 14.6378 10.5655C13.0309 10.5655 11.4589 10.8945 10.0341 11.5236V9.48691H10.0342ZM20.6723 16.5443C20.6723 17.0844 20.2875 17.5519 19.7573 17.6561C19.4395 17.7185 19.1855 17.9619 19.1103 18.2764C18.8981 19.1632 18.4391 19.9638 17.7827 20.5916L16.542 21.7782C15.4741 22.7996 13.8014 22.7995 12.7337 21.7782L11.4931 20.5916C10.8366 19.9638 10.3775 19.1632 10.1653 18.2762C10.09 17.9619 9.83613 17.7185 9.51836 17.6561C8.98818 17.552 8.60342 17.0844 8.60342 16.5443V15.9871C8.60342 15.9063 8.66914 15.8406 8.7499 15.8406H9.30166C9.70625 15.8406 10.0341 15.5127 10.0341 15.1082V13.151C11.4214 12.4176 13.007 12.0305 14.6378 12.0305C16.2687 12.0305 17.8544 12.4177 19.2416 13.1511V15.1083C19.2416 15.5128 19.5694 15.8407 19.974 15.8407H20.5258C20.6065 15.8407 20.6723 15.9064 20.6723 15.9872V16.5443Z" fill="#00BABA"/>
<path d="M35.0015 27.3848C34.9052 27.3848 34.8374 27.4804 34.8693 27.5713C35.1503 28.3749 35.9132 28.9519 36.8127 28.9519C37.7122 28.9519 38.4751 28.3748 38.7562 27.5713C38.788 27.4804 38.7203 27.3848 38.624 27.3848H35.0015Z" fill="#00BABA"/>
<path d="M39.1385 25.2677C39.5828 25.2677 39.943 24.9075 39.943 24.4632C39.943 24.0189 39.5828 23.6587 39.1385 23.6587C38.6942 23.6587 38.334 24.0189 38.334 24.4632C38.334 24.9075 38.6942 25.2677 39.1385 25.2677Z" fill="#00BABA"/>
<path d="M34.4861 25.2677C34.9304 25.2677 35.2906 24.9075 35.2906 24.4632C35.2906 24.0189 34.9304 23.6587 34.4861 23.6587C34.0418 23.6587 33.6816 24.0189 33.6816 24.4632C33.6816 24.9075 34.0418 25.2677 34.4861 25.2677Z" fill="#00BABA"/>
<path d="M42.8803 22.8936V20.7529C42.8803 18.1173 40.736 15.9731 38.1005 15.9731H35.5229C32.8874 15.9731 30.7432 18.1174 30.7432 20.7529V22.8936C29.9395 22.9837 29.3125 23.6675 29.3125 24.4949V25.0521C29.3125 26.1609 29.9974 27.1207 31.0142 27.4909C31.3234 28.5063 31.8866 29.4234 32.6545 30.158L33.895 31.3446C34.7129 32.1269 35.7622 32.5181 36.8118 32.518C37.8611 32.518 38.9108 32.1267 39.7285 31.3446L40.969 30.1579C41.737 29.4233 42.3001 28.5063 42.6094 27.4908C43.6264 27.1205 44.311 26.1608 44.311 25.052V24.4948C44.3109 23.6676 43.684 22.9838 42.8803 22.8936ZM35.5229 17.438H38.1005C39.324 17.438 40.3941 18.1048 40.9685 19.0937C40.7233 19.0197 40.4637 18.9796 40.1948 18.9796H33.4288C33.1599 18.9796 32.9003 19.0198 32.6552 19.0937C33.2294 18.1048 34.2994 17.438 35.5229 17.438ZM42.8461 25.0521C42.8461 25.5857 42.4822 26.0402 41.9611 26.1574C41.6216 26.2339 41.3573 26.4939 41.2713 26.8362C41.0537 27.7021 40.5991 28.4848 39.9564 29.0994L38.7158 30.2861C37.648 31.3076 35.9753 31.3074 34.9075 30.2861L33.6669 29.0995C33.0242 28.4848 32.5696 27.7021 32.3522 26.8372C32.2666 26.4946 32.0021 26.2342 31.662 26.1576C31.1493 26.0423 30.7772 25.5774 30.7772 25.0523V24.4951C30.7772 24.4144 30.843 24.3486 30.9237 24.3486H31.3778C31.8355 24.3486 32.2079 23.9763 32.2079 23.5186V21.6652C32.2079 20.9921 32.7555 20.4445 33.4286 20.4445H40.1946C40.8678 20.4445 41.4153 20.9921 41.4153 21.6652V23.5186C41.4153 23.9763 41.7877 24.3486 42.2454 24.3486H42.6995C42.7803 24.3486 42.846 24.4144 42.846 24.4951V25.0521H42.8461Z" fill="#00BABA"/>
</g>
<defs>
<clipPath id="clip0_99_71">
<rect width="50" height="50" fill="white" transform="translate(0.75)"/>
</clipPath>
</defs>
</svg>
