<svg width="36" height="36" viewBox="0 0 36 36" fill="none" xmlns="http://www.w3.org/2000/svg">
<path d="M3.95396 4.56427C2.27475 4.56427 0.900391 5.93863 0.900391 7.61784V11.9704C1.67887 11.172 2.76156 10.6714 3.95396 10.6714H32.0468C33.2392 10.6714 34.3219 11.172 35.1004 11.9704V11.2821C35.1004 9.60292 33.726 8.22856 32.0468 8.22856H18.6111C17.9908 8.22856 17.3965 7.98253 16.9579 7.54389L15.0208 5.60678C14.3534 4.93941 13.4478 4.56427 12.504 4.56427H3.95396ZM3.95396 11.8928C2.27475 11.8928 0.900391 13.2672 0.900391 14.9464V28.3821C0.900391 30.0613 2.27475 31.4357 3.95396 31.4357H32.0468C33.726 31.4357 35.1004 30.0613 35.1004 28.3821V14.9464C35.1004 13.2672 33.726 11.8928 32.0468 11.8928H3.95396ZM10.6969 17.3893C11.1748 17.3954 11.6327 17.5882 11.9708 17.926C12.6819 18.6365 12.6819 19.8075 11.9708 20.518L10.8209 21.6667L11.9708 22.8141C12.6819 23.5246 12.6819 24.6956 11.9708 25.4061C11.2595 26.1164 10.0889 26.1164 9.37763 25.4061L6.93 22.962C6.21901 22.2516 6.21901 21.0806 6.93 20.3701L9.37644 17.926C9.72595 17.5768 10.2028 17.3831 10.6969 17.3893ZM20.4611 17.3893C20.9476 17.3954 21.4043 17.5881 21.7422 17.926C22.453 18.6365 22.453 19.8074 21.7422 20.518L16.8505 25.4061C16.1396 26.1165 14.9695 26.1165 14.2586 25.4061C13.5478 24.6956 13.5478 23.5247 14.2586 22.8141L19.1491 17.926C19.4984 17.5768 19.9746 17.3831 20.4611 17.3893ZM25.3039 17.3893C25.798 17.3831 26.2737 17.5768 26.6232 17.926L29.0708 20.3701C29.7818 21.0805 29.7818 22.2515 29.0708 22.962L26.6232 25.4061C25.9119 26.1164 24.7413 26.1164 24.03 25.4061C23.3189 24.6956 23.3189 23.5246 24.03 22.8141L25.1787 21.6667L24.03 20.518C23.3189 19.8075 23.3189 18.6365 24.03 17.926C24.3681 17.5882 24.826 17.3954 25.3039 17.3893Z" fill="white"/>
</svg>
