<svg width="18" height="18" viewBox="0 0 18 18" fill="none" xmlns="http://www.w3.org/2000/svg">
<path d="M9 0C4.03884 0 0 4.03884 0 9C0 13.9612 4.03884 18 9 18C13.9612 18 18 13.9612 18 9C18 4.03884 13.9612 0 9 0ZM9 16.1368C5.06529 16.1368 1.86322 12.9347 1.86322 9C1.86322 5.06529 5.06529 1.86322 9 1.86322C12.9347 1.86322 16.1368 5.06529 16.1368 9C16.1368 12.9347 12.9347 16.1368 9 16.1368Z" fill="#FF0000"/>
<path d="M10.537 8.49422C10.1019 8.25248 9.64072 8.07397 9.18328 7.8843C8.91923 7.77645 8.66634 7.64628 8.4432 7.46777C8.00435 7.11446 8.08617 6.54546 8.60311 6.3186C8.74816 6.25537 8.90063 6.23306 9.05683 6.22562C9.65559 6.19215 10.2209 6.30372 10.7639 6.56405C11.0316 6.69422 11.1209 6.65331 11.2139 6.37438C11.3106 6.07686 11.3924 5.77562 11.4779 5.4781C11.5374 5.27727 11.463 5.14339 11.2734 5.06157C10.9275 4.90909 10.5705 4.79752 10.1948 4.74174C9.70766 4.66364 9.70766 4.66364 9.70394 4.17273C9.70022 3.47727 9.70022 3.47727 9.00849 3.48099C8.90807 3.48099 8.80766 3.47727 8.70725 3.48099C8.38369 3.49215 8.32791 3.54793 8.32047 3.87149C8.31675 4.01653 8.32047 4.16529 8.32047 4.31033C8.31675 4.74546 8.31675 4.73802 7.90022 4.88678C6.89609 5.25124 6.27501 5.93554 6.20807 7.03265C6.14857 8.00331 6.65435 8.65785 7.45022 9.13389C7.94113 9.42769 8.48411 9.60248 9.00477 9.83306C9.20931 9.92232 9.4027 10.0264 9.57006 10.1678C10.0721 10.5806 9.97915 11.2686 9.38411 11.5289C9.06427 11.6665 8.72956 11.7037 8.38741 11.6591C7.85559 11.5922 7.34609 11.4545 6.87006 11.2054C6.59113 11.0603 6.50931 11.0975 6.41262 11.4025C6.3308 11.6665 6.25642 11.9306 6.18576 12.1946C6.08906 12.5517 6.12254 12.6372 6.46468 12.8008C6.89609 13.0091 7.36097 13.1169 7.83328 13.195C8.20146 13.2545 8.21634 13.2694 8.22006 13.6525C8.22006 13.8273 8.22378 14.0021 8.22378 14.1731C8.22749 14.3926 8.33163 14.519 8.55849 14.5227C8.8151 14.5264 9.07171 14.5264 9.32832 14.5227C9.53659 14.519 9.64444 14.4037 9.64816 14.1917C9.64816 13.9537 9.65931 13.7157 9.65187 13.4777C9.64072 13.236 9.74485 13.1132 9.97915 13.05C10.5147 12.905 10.9721 12.6149 11.3254 12.1872C12.2924 10.9971 11.9205 9.26033 10.537 8.49422Z" fill="#FF0000"/>
</svg>
