<svg width="36" height="36" viewBox="0 0 36 36" fill="none" xmlns="http://www.w3.org/2000/svg">
<path fill-rule="evenodd" clip-rule="evenodd" d="M4.04058 2.1221H22.34C24.0982 2.1221 25.5368 3.56069 25.5368 5.31893V14.3471H25.3107C24.2144 14.3471 23.3196 15.2421 23.3196 16.3383V17.3872C23.3196 17.9465 23.5526 18.4534 23.9264 18.8158C23.5525 19.1782 23.3196 19.6852 23.3196 20.2444V21.2933C23.3196 21.8526 23.5526 22.3596 23.9264 22.722C23.5525 23.0844 23.3196 23.5913 23.3196 24.1507V25.1995C23.3196 25.7588 23.5526 26.2658 23.9264 26.6282C23.5525 26.9906 23.3196 27.4975 23.3196 28.0568V29.1056C23.3196 29.665 23.5526 30.1719 23.9264 30.5343C23.6059 30.845 23.389 31.2618 23.3336 31.7268C23.0205 31.83 22.6865 31.8861 22.34 31.8861H4.04058C2.28227 31.8861 0.84375 30.4475 0.84375 28.6893V5.31893C0.84375 3.56069 2.28227 2.1221 4.04058 2.1221ZM25.3107 33.878H34.2902C34.7655 33.878 35.1564 33.4872 35.1564 33.0119V31.963C35.1564 31.4877 34.7655 31.0968 34.2902 31.0968H25.3107C24.8354 31.0968 24.4446 31.4878 24.4446 31.963V33.0119C24.4446 33.4871 24.8354 33.878 25.3107 33.878ZM25.3107 29.9719H34.2902C34.7655 29.9719 35.1564 29.581 35.1564 29.1057V28.0569C35.1564 27.5816 34.7655 27.1907 34.2902 27.1907H25.3107C24.8354 27.1907 24.4446 27.5816 24.4446 28.0569V29.1057C24.4446 29.581 24.8354 29.9719 25.3107 29.9719ZM25.3107 22.1595H34.2902C34.7655 22.1595 35.1564 21.7686 35.1564 21.2933V20.2444C35.1564 19.7691 34.7655 19.3783 34.2902 19.3783H25.3107C24.8354 19.3783 24.4446 19.7692 24.4446 20.2444V21.2933C24.4446 21.7686 24.8354 22.1595 25.3107 22.1595ZM25.3107 26.0657H34.2902C34.7655 26.0657 35.1564 25.6748 35.1564 25.1995V24.1507C35.1564 23.6753 34.7655 23.2845 34.2902 23.2845H25.3107C24.8354 23.2845 24.4446 23.6754 24.4446 24.1507V25.1995C24.4446 25.6748 24.8354 26.0657 25.3107 26.0657ZM25.3107 18.2533H34.2902C34.7655 18.2533 35.1564 17.8625 35.1564 17.3872V16.3383C35.1564 15.863 34.7655 15.4721 34.2902 15.4721H25.3107C24.8354 15.4721 24.4446 15.8631 24.4446 16.3383V17.3872C24.4446 17.8625 24.8354 18.2533 25.3107 18.2533ZM5.10623 6.71069C4.70145 6.71069 4.37133 7.04081 4.37133 7.4456V10.3302C4.37133 10.735 4.70145 11.0651 5.10623 11.0651H21.2744C21.6792 11.0651 22.0093 10.735 22.0093 10.3302V7.4456C22.0093 7.04081 21.6792 6.71069 21.2744 6.71069H5.10623ZM5.78145 14.5651C5.37666 14.5651 5.04654 14.8952 5.04654 15.3V16.2554C5.04654 16.6602 5.37666 16.9903 5.78145 16.9903H8.5282C8.93299 16.9903 9.26311 16.6602 9.26311 16.2554V15.3C9.26311 14.8952 8.93299 14.5651 8.5282 14.5651H5.78145ZM17.8523 24.8723C17.4476 24.8723 17.1174 25.2024 17.1174 25.6072V26.5626C17.1174 26.9674 17.4476 27.2975 17.8523 27.2975H20.5991C21.0039 27.2975 21.334 26.9674 21.334 26.5626V25.6072C21.334 25.2024 21.0039 24.8723 20.5991 24.8723H17.8523ZM11.8169 24.8723C11.4121 24.8723 11.082 25.2024 11.082 25.6072V26.5626C11.082 26.9674 11.4121 27.2975 11.8169 27.2975H14.5636C14.9684 27.2975 15.2985 26.9674 15.2985 26.5626V25.6072C15.2985 25.2024 14.9684 24.8723 14.5636 24.8723H11.8169ZM5.78145 24.8723C5.37666 24.8723 5.04654 25.2024 5.04654 25.6072V26.5626C5.04654 26.9674 5.37666 27.2975 5.78145 27.2975H8.5282C8.93299 27.2975 9.26311 26.9674 9.26311 26.5626V25.6072C9.26311 25.2024 8.93299 24.8723 8.5282 24.8723H5.78145ZM17.8523 19.7187C17.4476 19.7187 17.1174 20.0488 17.1174 20.4536V21.409C17.1174 21.8138 17.4476 22.1439 17.8523 22.1439H20.5991C21.0039 22.1439 21.334 21.8138 21.334 21.409V20.4536C21.334 20.0488 21.0039 19.7187 20.5991 19.7187H17.8523ZM11.8169 19.7187C11.4121 19.7187 11.082 20.0488 11.082 20.4536V21.409C11.082 21.8138 11.4121 22.1439 11.8169 22.1439H14.5636C14.9684 22.1439 15.2985 21.8138 15.2985 21.409V20.4536C15.2985 20.0488 14.9684 19.7187 14.5636 19.7187H11.8169ZM5.78145 19.7187C5.37666 19.7187 5.04654 20.0488 5.04654 20.4536V21.409C5.04654 21.8138 5.37666 22.1439 5.78145 22.1439H8.5282C8.93299 22.1439 9.26311 21.8138 9.26311 21.409V20.4536C9.26311 20.0488 8.93299 19.7187 8.5282 19.7187H5.78145ZM17.8523 14.5651C17.4476 14.5651 17.1174 14.8952 17.1174 15.3V16.2554C17.1174 16.6602 17.4476 16.9903 17.8523 16.9903H20.5991C21.0039 16.9903 21.334 16.6602 21.334 16.2554V15.3C21.334 14.8952 21.0039 14.5651 20.5991 14.5651H17.8523ZM11.8169 14.5651C11.4121 14.5651 11.082 14.8952 11.082 15.3V16.2554C11.082 16.6602 11.4121 16.9903 11.8169 16.9903H14.5636C14.9684 16.9903 15.2985 16.6602 15.2985 16.2554V15.3C15.2985 14.8952 14.9684 14.5651 14.5636 14.5651H11.8169Z" fill="white"/>
</svg>
