<svg width="15" height="16" viewBox="0 0 15 16" fill="none" xmlns="http://www.w3.org/2000/svg">
<g clip-path="url(#clip0_40_89)">
<path d="M12.8038 2.69649C9.87482 -0.232162 5.12591 -0.232489 2.19661 2.69649C-0.732367 5.62546 -0.73204 10.3744 2.19661 13.3037C5.12559 16.232 9.87449 16.2323 12.8038 13.3037C15.7324 10.3744 15.7321 5.62579 12.8038 2.69649ZM8.47816 11.261C8.47816 11.8014 8.04022 12.2393 7.49988 12.2393C6.95954 12.2393 6.5216 11.8014 6.5216 11.261V7.34789C6.5216 6.80756 6.95954 6.36961 7.49988 6.36961C8.04022 6.36961 8.47816 6.80756 8.47816 7.34789V11.261ZM7.48259 5.67568C6.9191 5.67568 6.54344 5.27654 6.55518 4.78382C6.54344 4.26728 6.9191 3.88021 7.49401 3.88021C8.06924 3.88021 8.43316 4.26761 8.44522 4.78382C8.4449 5.27654 8.06956 5.67568 7.48259 5.67568Z" fill="#00BABA"/>
</g>
<defs>
<clipPath id="clip0_40_89">
<rect width="15" height="15" fill="white" transform="translate(0 0.5)"/>
</clipPath>
</defs>
</svg>
