<svg width="51" height="50" viewBox="0 0 51 50" fill="none" xmlns="http://www.w3.org/2000/svg">
<g clip-path="url(#clip0_99_41)">
<path d="M49.5849 42.1597H48.3597V13.809C48.3597 12.1183 46.9841 10.7427 45.2934 10.7427H43.1824C42.7772 10.7427 42.4487 11.0711 42.4487 11.4764C42.4487 11.8816 42.7772 12.21 43.1824 12.21H45.2934C46.1751 12.21 46.8923 12.9274 46.8923 13.809V42.1596H4.60767V13.809C4.60767 12.9274 5.32501 12.21 6.20659 12.21H8.31762C8.72281 12.21 9.0513 11.8816 9.0513 11.4764C9.0513 11.0711 8.72281 10.7427 8.31762 10.7427H6.20659C4.51581 10.7427 3.14032 12.1183 3.14032 13.809V42.1596H1.91508C1.27267 42.1596 0.75 42.6823 0.75 43.3247V43.9369C0.75 45.7949 2.26157 47.3064 4.11953 47.3064H47.3805C49.2384 47.3064 50.75 45.7949 50.75 43.9369V43.3247C50.75 42.6823 50.2273 42.1597 49.5849 42.1597ZM49.2826 43.937C49.2826 44.986 48.4293 45.8392 47.3805 45.8392H4.11953C3.07067 45.8392 2.21735 44.9859 2.21735 43.937V43.6271H49.2826V43.937Z" fill="#00BABA"/>
<path d="M7.54352 39.225V15.1448H8.31877C8.72396 15.1448 9.05245 14.8164 9.05245 14.4111C9.05245 14.0059 8.72396 13.6775 8.31877 13.6775H6.80985C6.40466 13.6775 6.07617 14.0059 6.07617 14.4111V39.9587C6.07617 40.364 6.40466 40.6924 6.80985 40.6924H44.6925C45.0976 40.6924 45.4261 40.364 45.4261 39.9587V33.9412C45.4261 33.5359 45.0976 33.2075 44.6925 33.2075C44.2873 33.2075 43.9588 33.5359 43.9588 33.9412V39.225H40.9825V10.093C40.9825 9.00405 40.0966 8.11816 39.0076 8.11816H36.5805C36.1754 8.11816 35.8469 8.44656 35.8469 8.85184C35.8469 9.25712 36.1754 9.58552 36.5805 9.58552H39.0076C39.2874 9.58552 39.5152 9.81315 39.5152 10.093V39.225H37.0204V36.8696C37.0204 36.1549 36.439 35.5736 35.7243 35.5736H15.778C15.0633 35.5736 14.4819 36.1549 14.4819 36.8696V39.225H11.9872V10.093C11.9872 9.81325 12.2148 9.58552 12.4947 9.58552H14.9218C15.3269 9.58552 15.6554 9.25712 15.6554 8.85184C15.6554 8.44656 15.3269 8.11816 14.9218 8.11816H12.4947C11.4058 8.11816 10.5198 9.00405 10.5198 10.093V39.225H7.54352ZM15.9493 37.0408H35.553V39.2249H15.9493V37.0408Z" fill="#00BABA"/>
<path d="M44.6918 31.548C45.097 31.548 45.4255 31.2196 45.4255 30.8143V14.4109C45.4255 14.0056 45.097 13.6772 44.6918 13.6772H43.1829C42.7777 13.6772 42.4492 14.0056 42.4492 14.4109C42.4492 14.8162 42.7777 15.1446 43.1829 15.1446H43.9581V30.8143C43.9581 31.2196 44.2866 31.548 44.6918 31.548Z" fill="#00BABA"/>
<path d="M20.7601 15.6447H22.9635L24.4829 17.1642C24.8327 17.5139 25.2921 17.6887 25.7516 17.6887C26.2109 17.6887 26.6704 17.5139 27.0202 17.1641L28.5396 15.6447H30.743C32.7484 15.6447 34.38 14.0131 34.38 12.0077V6.33083C34.38 4.32544 32.7485 2.69385 30.743 2.69385H25.7771C25.3719 2.69385 25.0434 3.02224 25.0434 3.42752C25.0434 3.83281 25.3719 4.1612 25.7771 4.1612H30.743C31.9393 4.1612 32.9126 5.13444 32.9126 6.33083V12.0077C32.9126 13.204 31.9394 14.1773 30.743 14.1773H28.2357C28.0411 14.1773 27.8545 14.2546 27.7169 14.3923L25.9826 16.1266C25.8552 16.254 25.6479 16.254 25.5204 16.1266L23.7861 14.3923C23.6486 14.2546 23.4619 14.1773 23.2673 14.1773H20.76C19.5637 14.1773 18.5904 13.2041 18.5904 12.0077V6.33083C18.5904 5.13454 19.5636 4.1612 20.76 4.1612H22.6505C23.0556 4.1612 23.3841 3.83281 23.3841 3.42752C23.3841 3.02224 23.0556 2.69385 22.6505 2.69385H20.76C18.7546 2.69385 17.123 4.32544 17.123 6.33083V12.0077C17.1231 14.0131 18.7547 15.6447 20.7601 15.6447Z" fill="#00BABA"/>
<path d="M22.0477 6.6493C20.9867 7.71039 20.9867 9.43687 22.0477 10.4981L24.7366 13.1869C25.0076 13.458 25.3679 13.6072 25.7513 13.6072C26.1347 13.6072 26.4949 13.458 26.766 13.1869L29.455 10.498C30.516 9.43687 30.516 7.71039 29.4549 6.6492C28.4504 5.64475 26.8496 5.59105 25.7814 6.48848C24.7159 5.56649 23.0824 5.61482 22.0761 6.62093L22.0477 6.6493ZM23.0849 7.6872L23.1132 7.65903C23.3561 7.41613 23.678 7.29425 24.0003 7.29425C24.314 7.29425 24.6278 7.40978 24.8689 7.64142L25.2787 8.03506C25.5668 8.312 26.0233 8.30721 26.3058 8.02479L26.6438 7.68681C27.1328 7.19789 27.9284 7.19799 28.4175 7.68671C28.9064 8.17573 28.9064 8.97143 28.4175 9.46035L25.7515 12.1264L23.0855 9.46044C22.5964 8.97143 22.5964 8.17573 23.0849 7.6872Z" fill="#00BABA"/>
<path d="M14.3848 25.5472C14.5044 25.9343 14.9154 26.1515 15.3024 26.0314C15.6896 25.9118 15.9063 25.5009 15.7867 25.1138C15.6707 24.7387 15.6119 24.3473 15.6119 23.9507C15.6119 21.7814 17.3767 20.0166 19.546 20.0166C21.7154 20.0166 23.4802 21.7814 23.4802 23.9507C23.4802 26.1201 21.7153 27.885 19.546 27.885C18.7762 27.885 18.0301 27.662 17.3883 27.2397C17.0498 27.0173 16.5948 27.1112 16.3722 27.4497C16.1495 27.7882 16.2434 28.2431 16.582 28.4659C17.4639 29.0459 18.4888 29.3524 19.546 29.3524C22.5245 29.3524 24.9476 26.9293 24.9476 23.9508C24.9476 20.9725 22.5244 18.5493 19.546 18.5493C16.5677 18.5493 14.1445 20.9725 14.1445 23.9508C14.1445 24.4944 14.2253 25.0316 14.3848 25.5472Z" fill="#00BABA"/>
<path d="M37.0221 23.951C37.0221 23.5457 36.6936 23.2173 36.2884 23.2173H27.5481C27.1429 23.2173 26.8145 23.5457 26.8145 23.951C26.8145 24.3562 27.1429 24.6846 27.5481 24.6846H36.2884C36.6936 24.6846 37.0221 24.3562 37.0221 23.951Z" fill="#00BABA"/>
<path d="M16.7181 32.248C16.3129 32.248 15.9844 32.5764 15.9844 32.9817C15.9844 33.387 16.3129 33.7154 16.7181 33.7154H17.8527C18.2579 33.7154 18.5864 33.387 18.5864 32.9817C18.5864 32.5764 18.2579 32.248 17.8527 32.248H16.7181Z" fill="#00BABA"/>
<path d="M33.7434 32.248C33.3383 32.248 33.0098 32.5764 33.0098 32.9817C33.0098 33.387 33.3383 33.7154 33.7434 33.7154H34.8781C35.2833 33.7154 35.6118 33.387 35.6118 32.9817C35.6118 32.5764 35.2833 32.248 34.8781 32.248H33.7434Z" fill="#00BABA"/>
<path d="M20.4876 32.248C20.0824 32.248 19.7539 32.5764 19.7539 32.9817C19.7539 33.387 20.0824 33.7154 20.4876 33.7154H30.976C31.3812 33.7154 31.7097 33.387 31.7097 32.9817C31.7097 32.5764 31.3812 32.248 30.976 32.248H20.4876Z" fill="#00BABA"/>
</g>
<defs>
<clipPath id="clip0_99_41">
<rect width="50" height="50" fill="white" transform="translate(0.75)"/>
</clipPath>
</defs>
</svg>
