<svg width="15" height="16" viewBox="0 0 15 16" fill="none" xmlns="http://www.w3.org/2000/svg">
<g clip-path="url(#clip0_40_131)">
<path d="M7.49981 0.5C4.50436 0.5 2.06738 2.93697 2.06738 5.9324C2.06738 9.64982 6.92888 15.1072 7.13586 15.3377C7.33027 15.5543 7.66971 15.5539 7.86377 15.3377C8.07075 15.1072 12.9322 9.64982 12.9322 5.9324C12.9322 2.93697 10.4952 0.5 7.49981 0.5ZM7.49981 8.6656C5.99272 8.6656 4.76665 7.43949 4.76665 5.9324C4.76665 4.42531 5.99275 3.19924 7.49981 3.19924C9.00688 3.19924 10.2329 4.42534 10.2329 5.93243C10.2329 7.43952 9.00688 8.6656 7.49981 8.6656Z" fill="#00BABA"/>
</g>
<defs>
<clipPath id="clip0_40_131">
<rect width="15" height="15" fill="white" transform="translate(0 0.5)"/>
</clipPath>
</defs>
</svg>
