<svg width="20" height="20" viewBox="0 0 20 20" fill="none" xmlns="http://www.w3.org/2000/svg">
<circle cx="10" cy="10" r="10" fill="#00BABA"/>
<path d="M10.6858 11.6842L10.6858 11.6842C10.7027 11.693 10.7204 11.702 10.7385 11.7113C10.7534 11.719 10.7687 11.7268 10.784 11.7347L11.3998 11.1218C11.6289 10.8931 11.9027 10.7675 12.1934 10.7675C12.4863 10.7675 12.7583 10.8953 12.9792 11.1247L14.1386 12.2865C14.1387 12.2866 14.1388 12.2866 14.1388 12.2867C14.3684 12.5138 14.4938 12.7895 14.4938 13.0815C14.4938 13.3708 14.371 13.648 14.1468 13.881C14.1467 13.881 14.1467 13.8811 14.1467 13.8811L14.0746 13.8118C13.9837 13.9067 13.8907 13.9975 13.7998 14.084C13.79 14.0935 13.7801 14.103 13.7704 14.1125C13.648 14.2306 13.5317 14.3429 13.4299 14.466L10.6858 11.6842ZM10.6858 11.6842L10.6844 11.6835C10.6075 11.6451 10.5401 11.6114 10.4836 11.5764M10.6858 11.6842L10.4305 11.6611M13.5056 14.532L13.5046 14.534L13.495 14.5444C13.154 14.914 12.7169 15.1 12.2018 15.1C12.1568 15.1 12.108 15.0977 12.0639 15.0957L12.0623 15.0956C11.3175 15.0479 10.6543 14.7686 10.1658 14.5374L10.1651 14.5371C8.87956 13.9166 7.75439 13.0361 6.81967 11.9217L6.81946 11.9214C6.05052 10.9984 5.53258 10.1339 5.18551 9.19914M13.5056 14.532L12.0687 14.9958C11.3436 14.9493 10.6947 14.6771 10.2086 14.447C8.93607 13.8329 7.82212 12.9612 6.89629 11.8574C6.13322 10.9414 5.62169 10.0866 5.27926 9.16434C5.13975 8.78866 4.95797 8.21459 5.0087 7.59831C5.04252 7.2163 5.19682 6.88706 5.46738 6.61691L5.39642 6.54646L5.39657 6.54631C5.1095 6.83301 4.94498 7.18412 4.90909 7.58949L4.90909 7.58949L4.90903 7.59011C4.85643 8.22915 5.04485 8.82036 5.18551 9.19914M13.5056 14.532C13.5071 14.5301 13.5088 14.5279 13.5106 14.5255C13.6077 14.4085 13.7188 14.3013 13.8407 14.1836C13.8501 14.1745 13.8596 14.1654 13.8691 14.1561L13.5056 14.532ZM5.18551 9.19914L5.27774 9.1649L5.18551 9.19915C5.18551 9.19915 5.18551 9.19914 5.18551 9.19914ZM7.68611 5.8164C7.46506 5.59852 7.1959 5.47852 6.90897 5.47852C6.62177 5.47852 6.34837 5.59873 6.12109 5.81658L6.12108 5.81657L6.11963 5.81801L6.11752 5.82012L6.11541 5.82223L6.11541 5.82223L6.1151 5.82254L5.39673 6.54614L7.61708 5.88877M7.68611 5.8164C7.68569 5.81601 7.68527 5.81563 7.68485 5.81524L7.61708 5.88877M7.68611 5.8164C7.68653 5.81682 7.68695 5.81723 7.68737 5.81764L7.61708 5.88877M7.68611 5.8164C7.82524 5.9447 7.95959 6.08103 8.08628 6.21174L8.08738 6.21287L8.08737 6.21288C8.14949 6.27904 8.21597 6.34544 8.28171 6.41107L8.85876 6.98725C9.09627 7.22439 9.22102 7.50316 9.22102 7.78826C9.22102 8.07337 9.09627 8.35213 8.85876 8.58927C8.82954 8.61846 8.80026 8.64821 8.77061 8.67834L8.77049 8.67846C8.74106 8.70837 8.71128 8.73864 8.68143 8.76844M7.61708 5.88877C7.75448 6.0154 7.88764 6.15048 8.01447 6.28133C8.07788 6.34886 8.14551 6.4164 8.21103 6.48182L8.21105 6.48183L8.78811 7.05801C9.232 7.50123 9.232 8.07529 8.78811 8.51851C8.75851 8.54806 8.72892 8.57813 8.69932 8.60821C8.66973 8.63829 8.64014 8.66836 8.61055 8.6979M8.68143 8.76844C8.68152 8.76836 8.6816 8.76828 8.68168 8.76819L8.61055 8.6979M8.68143 8.76844C8.66643 8.78363 8.65136 8.79889 8.63622 8.81423C8.51057 8.94156 8.38005 9.0738 8.24166 9.20302M8.68143 8.76844C8.68136 8.76852 8.68128 8.76859 8.68121 8.76867L8.61055 8.6979M8.61055 8.6979L8.24166 9.20302M8.24166 9.20302C8.23121 9.1813 8.22109 9.15959 8.21126 9.13788L8.12016 9.17911L8.18759 9.25295C8.20575 9.23637 8.22377 9.21972 8.24166 9.20302ZM8.24166 9.20302C8.36361 9.45668 8.52888 9.71268 8.76882 10.0156M8.24166 9.20302L8.69087 10.0782M8.76882 10.0156C8.76868 10.0154 8.76853 10.0152 8.76839 10.015L8.69087 10.0782M8.76882 10.0156C8.76897 10.0157 8.76911 10.0159 8.76925 10.0161L8.69087 10.0782M8.76882 10.0156C9.30819 10.6772 9.86868 11.1863 10.4836 11.5764M8.69087 10.0782C9.23622 10.7472 9.80483 11.2643 10.4305 11.6611M10.4836 11.5764C10.4835 11.5763 10.4833 11.5762 10.4832 11.5761L10.4305 11.6611M10.4836 11.5764C10.4838 11.5765 10.4839 11.5766 10.4841 11.5767L10.4305 11.6611M13.5994 13.3405C13.6915 13.2426 13.7262 13.1573 13.726 13.0839C13.7258 13.0091 13.6894 12.9238 13.5921 12.8276L13.5918 12.8272L12.4271 11.6643L12.425 11.6622L12.4241 11.6614L12.4229 11.6601L12.4196 11.6569L12.4197 11.6568C12.3615 11.5931 12.2786 11.5353 12.1892 11.5353C12.0974 11.5353 12.008 11.5971 11.9406 11.6643L11.2177 12.3861L11.2167 12.3872C11.1776 12.4263 11.0427 12.561 10.8258 12.561C10.7385 12.561 10.6557 12.5396 10.5718 12.4977C10.5632 12.4934 10.5554 12.4885 10.5516 12.4861L10.5509 12.4857C10.5473 12.4835 10.5462 12.4828 10.5461 12.4828L10.5382 12.4788L10.5385 12.4785C10.4818 12.4434 10.4144 12.4096 10.3372 12.3711L10.3354 12.3702C10.252 12.3285 10.1594 12.2823 10.0685 12.2248C9.38077 11.7905 8.75878 11.2248 8.17055 10.502L8.16369 10.4951L8.16424 10.4947C7.83916 10.0826 7.62221 9.7327 7.4676 9.35872L7.46492 9.35226L7.46516 9.35218L7.46199 9.34268L7.45882 9.33319L7.45831 9.33168L7.45832 9.33168C7.43783 9.26687 7.41491 9.17641 7.42686 9.07341C7.43888 8.96968 7.4852 8.86157 7.58705 8.75759C7.59387 8.74908 7.6002 8.74362 7.60305 8.74118L7.60537 8.73923L7.60736 8.73726L7.60746 8.73737C7.78882 8.57501 7.95606 8.40808 8.13322 8.22697L8.13527 8.22488L8.1353 8.22491C8.17529 8.18636 8.21369 8.14757 8.25332 8.10754C8.2737 8.08694 8.29442 8.06602 8.31583 8.04463C8.41837 7.94226 8.45454 7.85861 8.45454 7.78826C8.45454 7.71791 8.41837 7.63427 8.31583 7.53189L7.73878 6.95571L7.73769 6.95463L7.7377 6.95462C7.7044 6.92033 7.67106 6.88652 7.63767 6.85266L7.63703 6.85201C7.60352 6.81802 7.56995 6.78397 7.53686 6.74986L7.53684 6.74984C7.40809 6.61707 7.28694 6.49406 7.15993 6.37556L7.15745 6.37324L7.15749 6.3732L7.15432 6.37004L7.15115 6.36687C7.08975 6.30556 7.00629 6.24837 6.9132 6.24837C6.83937 6.24837 6.75311 6.28454 6.66141 6.37013L5.94177 7.08868C5.78311 7.2471 5.69822 7.42971 5.67906 7.65311C5.64899 8.01983 5.71643 8.41391 5.90982 8.93091L5.90992 8.93119C6.22438 9.77956 6.69978 10.5718 7.41483 11.4324C8.27883 12.4621 9.31804 13.2742 10.5013 13.8461C10.9366 14.054 11.5055 14.2915 12.1131 14.3303L12.1134 14.3304C12.1412 14.3322 12.1716 14.3323 12.2039 14.3323C12.5064 14.3323 12.7307 14.2357 12.9241 14.03C13.0581 13.8727 13.2 13.7333 13.3373 13.6025M13.5994 13.3405L13.5942 13.4905C13.5897 13.4862 13.5854 13.4814 13.5815 13.476C13.5674 13.456 13.563 13.4347 13.563 13.4179C13.563 13.3889 13.5752 13.3683 13.5824 13.3585M13.5994 13.3405C13.594 13.345 13.5886 13.3504 13.5836 13.357C13.5832 13.3575 13.5828 13.358 13.5824 13.3585M13.5994 13.3405L13.5824 13.3585M13.3373 13.6025C13.3374 13.6024 13.3376 13.6023 13.3377 13.6022L13.4067 13.6746L13.3369 13.603C13.337 13.6028 13.3372 13.6027 13.3373 13.6025ZM13.3373 13.6025C13.3538 13.5865 13.37 13.5708 13.3858 13.5554C13.4553 13.4879 13.5195 13.4256 13.5824 13.3585M13.7286 13.3424C13.7102 13.3668 13.6893 13.3913 13.6658 13.4157L13.6646 13.4145V13.318C13.6731 13.3181 13.6827 13.3194 13.6929 13.3225C13.7047 13.3262 13.7172 13.3326 13.7286 13.3424Z" fill="white" stroke="white" stroke-width="0.2"/>
<path d="M12.9631 9.92198L12.9631 9.92205L12.9667 9.92147C13.1791 9.88707 13.3181 9.68672 13.2841 9.47748L13.2841 9.47747L13.284 9.47669C13.1663 8.78699 12.8394 8.15825 12.3408 7.66044C11.8422 7.16262 11.2126 6.83622 10.5219 6.71875L10.5219 6.71875L10.5211 6.71862C10.3112 6.68464 10.1141 6.82367 10.0769 7.03194C10.04 7.23881 10.176 7.44267 10.3895 7.47741C10.9223 7.5668 11.4065 7.81852 11.7936 8.20508C12.1806 8.59147 12.4308 9.07492 12.5224 9.60733C12.5541 9.79636 12.7177 9.92697 12.9021 9.92697C12.9241 9.92697 12.9439 9.92444 12.9582 9.9226C12.96 9.92238 12.9616 9.92217 12.9631 9.92198Z" fill="white" stroke="white" stroke-width="0.2"/>
<path d="M14.3351 9.52063C14.3667 9.70973 14.5303 9.8404 14.7148 9.8404C14.7368 9.8404 14.7566 9.83787 14.7709 9.83603C14.7727 9.83582 14.7743 9.83561 14.7758 9.83541L14.7758 9.83545L14.7783 9.83507C14.9883 9.80347 15.1314 9.60327 15.0945 9.39433C14.9029 8.27202 14.3731 7.25071 13.5595 6.4384C12.746 5.62617 11.7234 5.09721 10.5996 4.90582C10.3891 4.86861 10.1932 5.01258 10.1563 5.21895L10.1563 5.21894L10.1561 5.22047C10.1219 5.43083 10.262 5.62738 10.4721 5.66424L10.4721 5.66425L10.4727 5.66435C11.437 5.82757 12.3166 6.28411 13.0167 6.98101C13.7165 7.6798 14.1716 8.55788 14.3351 9.52063ZM14.3351 9.52063C14.3351 9.52058 14.3351 9.52053 14.3351 9.52049L14.4337 9.50402L14.3351 9.52076C14.3351 9.52072 14.3351 9.52067 14.3351 9.52063Z" fill="white" stroke="white" stroke-width="0.2"/>
</svg>
