<svg width="50" height="46" viewBox="0 0 50 46" fill="none" xmlns="http://www.w3.org/2000/svg">
<path d="M18.8453 18.6584C20.7424 18.6584 22.2804 17.1205 22.2804 15.2233C22.2804 13.3261 20.7424 11.7882 18.8453 11.7882C16.9481 11.7882 15.4102 13.3261 15.4102 15.2233C15.4102 17.1205 16.9481 18.6584 18.8453 18.6584Z" fill="#757575"/>
<path d="M47.042 27.8664C45.4198 26.3397 43.3683 25.3378 41.1259 25.0515V7.58971C41.1259 5.72902 40.3626 4.05918 39.1698 2.81872C37.9294 1.57826 36.2595 0.86261 34.3989 0.86261H6.7271C4.86641 0.86261 3.19656 1.62597 1.95611 2.81872C0.715649 4.05918 0 5.72902 0 7.58971V29.584V31.6355V36.0725C0 37.9332 0.763359 39.6031 1.95611 40.8435C3.19656 42.084 4.86641 42.7996 6.7271 42.7996H33.4924C35.2576 44.2309 37.4523 45.1374 39.8855 45.1374C42.7004 45.1374 45.229 43.9924 47.042 42.1794C48.855 40.3664 50 37.8378 50 35.0229C50 32.208 48.855 29.6794 47.042 27.8664ZM2.52863 7.58971C2.52863 6.44467 3.00573 5.39505 3.76908 4.6794C4.53244 3.91604 5.58206 3.43895 6.7271 3.43895H34.3989C35.5439 3.43895 36.5935 3.91604 37.3569 4.6794C38.1202 5.44276 38.5973 6.49238 38.5973 7.63742V22.5229L31.5363 15.4618C31.0592 14.9847 30.2481 14.937 29.7233 15.4618L19.084 26.1489L11.8798 18.897C11.4027 18.4199 10.5916 18.3722 10.0668 18.897L2.52863 26.5305V7.58971ZM6.67939 40.3664V40.271C5.53435 40.271 4.48473 39.7939 3.72137 39.0305C3.00573 38.2672 2.52863 37.2176 2.52863 36.0725V31.6355V30.1565L10.9733 21.6641L18.1775 28.8683C18.6546 29.3454 19.4656 29.3454 19.9905 28.8683L30.6298 18.1813L37.5954 25.1947C37.4523 25.2424 37.3092 25.2901 37.166 25.3378C36.9752 25.3855 36.7843 25.4332 36.5458 25.5286C36.355 25.5764 36.1641 25.6718 35.9733 25.7195C35.8302 25.7672 35.7347 25.8149 35.5916 25.9103C35.4008 26.0057 35.2576 26.0534 35.1145 26.1489C34.8759 26.292 34.6374 26.4351 34.3989 26.5783C34.2557 26.6737 34.1603 26.7214 34.0172 26.8168C33.9218 26.8645 33.874 26.9122 33.7786 26.9599C33.3492 27.2462 32.9676 27.5802 32.6336 27.9618C30.8206 29.7748 29.6756 32.3035 29.6756 35.1183C29.6756 35.834 29.771 36.5019 29.9141 37.2176C29.9618 37.4084 30.0095 37.5515 30.0573 37.7424C30.2004 38.2195 30.3435 38.6966 30.5343 39.1737V39.2214C30.7252 39.6031 30.916 40.0325 31.1546 40.3664H6.67939ZM45.1813 40.3664C43.7977 41.75 41.937 42.5611 39.8378 42.5611C37.834 42.5611 35.9733 41.75 34.6374 40.4618C34.4466 40.271 34.2557 40.0325 34.0649 39.8416C33.9218 39.6985 33.7786 39.5076 33.6355 39.3645C33.4447 39.126 33.3015 38.8397 33.1584 38.5535C33.063 38.3626 32.9676 38.2195 32.8721 38.0286C32.7767 37.7901 32.6813 37.5038 32.6336 37.2176C32.5859 37.0267 32.4905 36.7882 32.4427 36.5973C32.3473 36.1202 32.2996 35.5954 32.2996 35.0706C32.2996 32.9714 33.1584 31.1107 34.4943 29.7271C35.8302 28.3435 37.7385 27.5325 39.8378 27.5325C41.937 27.5325 43.7977 28.3912 45.1813 29.7271C46.5649 31.1107 47.376 32.9714 47.376 35.0706C47.376 37.1222 46.5172 38.9828 45.1813 40.3664Z" fill="#757575"/>
<path d="M40.7441 29.918C40.6486 29.8225 40.5055 29.7271 40.3147 29.6317C40.1715 29.584 40.0284 29.5363 39.8853 29.5363C39.8376 29.5363 39.8376 29.5363 39.8376 29.5363C39.7899 29.5363 39.7899 29.5363 39.7899 29.5363C39.6467 29.5363 39.5036 29.584 39.3605 29.6317C39.2173 29.6794 39.0742 29.7748 38.9311 29.918L35.9731 32.876C35.496 33.3531 35.496 34.1641 35.9731 34.6889C36.4502 35.166 37.2612 35.166 37.786 34.6889L38.5494 33.9256V39.1737C38.5494 39.8893 39.1219 40.4618 39.8376 40.4618C40.5532 40.4618 41.1257 39.8893 41.1257 39.1737V33.9256L41.8891 34.6889C42.3662 35.166 43.1773 35.166 43.7021 34.6889C44.1792 34.2118 44.1792 33.4008 43.7021 32.876L40.7441 29.918Z" fill="#757575"/>
</svg>
