<svg width="41" height="40" viewBox="0 0 41 40" fill="none" xmlns="http://www.w3.org/2000/svg">
<path d="M20.5 2.5C15.876 2.55579 11.4572 4.41744 8.18731 7.68731C4.91744 10.9572 3.05579 15.376 3 20C3.05579 24.624 4.91744 29.0428 8.18731 32.3127C11.4572 35.5826 15.876 37.4442 20.5 37.5C25.124 37.4442 29.5428 35.5826 32.8127 32.3127C36.0826 29.0428 37.9442 24.624 38 20C37.9442 15.376 36.0826 10.9572 32.8127 7.68731C29.5428 4.41744 25.124 2.55579 20.5 2.5ZM30.5 21.25H21.75V30H19.25V21.25H10.5V18.75H19.25V10H21.75V18.75H30.5V21.25Z" fill="white"/>
</svg>
