<svg width="16" height="17" viewBox="0 0 16 17" fill="none" xmlns="http://www.w3.org/2000/svg">
<path d="M1.71415 15.7461V13.1746H4.28557V15.7461H1.71415ZM4.857 15.7461V13.1746H7.71415V15.7461H4.857ZM1.71415 12.6032V9.74606H4.28557V12.6032H1.71415ZM4.857 12.6032V9.74606H7.71415V12.6032H4.857ZM1.71415 9.17463V6.6032H4.28557V9.17463H1.71415ZM8.28557 15.7461V13.1746H11.1427V15.7461H8.28557ZM4.857 9.17463V6.6032H7.71415V9.17463H4.857ZM11.7141 15.7461V13.1746H14.2856V15.7461H11.7141ZM8.28557 12.6032V9.74606H11.1427V12.6032H8.28557ZM5.14272 4.88892C5.14272 5.0407 5.00879 5.17463 4.857 5.17463H4.28557C4.13379 5.17463 3.99986 5.0407 3.99986 4.88892V2.31749C3.99986 2.1657 4.13379 2.03177 4.28557 2.03177H4.857C5.00879 2.03177 5.14272 2.1657 5.14272 2.31749V4.88892ZM11.7141 12.6032V9.74606H14.2856V12.6032H11.7141ZM8.28557 9.17463V6.6032H11.1427V9.17463H8.28557ZM11.7141 9.17463V6.6032H14.2856V9.17463H11.7141ZM11.9999 4.88892C11.9999 5.0407 11.8659 5.17463 11.7141 5.17463H11.1427C10.9909 5.17463 10.857 5.0407 10.857 4.88892V2.31749C10.857 2.1657 10.9909 2.03177 11.1427 2.03177H11.7141C11.8659 2.03177 11.9999 2.1657 11.9999 2.31749V4.88892ZM15.4284 4.31749C15.4284 3.69249 14.9106 3.17463 14.2856 3.17463H13.1427V2.31749C13.1427 1.53177 12.4999 0.888916 11.7141 0.888916H11.1427C10.357 0.888916 9.71415 1.53177 9.71415 2.31749V3.17463H6.28557V2.31749C6.28557 1.53177 5.64272 0.888916 4.857 0.888916H4.28557C3.49986 0.888916 2.857 1.53177 2.857 2.31749V3.17463H1.71415C1.08915 3.17463 0.571289 3.69249 0.571289 4.31749V15.7461C0.571289 16.3711 1.08915 16.8889 1.71415 16.8889H14.2856C14.9106 16.8889 15.4284 16.3711 15.4284 15.7461V4.31749Z" fill="#757575"/>
</svg>
