<svg width="15" height="16" viewBox="0 0 15 16" fill="none" xmlns="http://www.w3.org/2000/svg">
<g clip-path="url(#clip0_40_103)">
<path d="M11.1806 3.66576C11.7554 3.66576 12.2211 3.2032 12.2211 2.62733V1.54049C12.2211 0.964098 11.756 0.5 11.1806 0.5C10.6052 0.5 10.1406 0.963583 10.1406 1.54049V2.62785C10.1411 3.2032 10.6058 3.66576 11.1806 3.66576Z" fill="#00BABA"/>
<path d="M14.8772 2.29974H12.7828V2.82874C12.7828 3.70182 12.0735 4.41316 11.1989 4.41316C10.3232 4.41316 9.61551 3.70182 9.61551 2.82874V2.29974H5.38918V2.82874C5.38918 3.70182 4.67886 4.41316 3.80475 4.41316C2.93064 4.41316 2.22084 3.70233 2.22084 2.82874V2.29974L0.107422 2.27347V15.5H1.16439H13.8377L14.8931 15.4969L14.8772 2.29974ZM13.8367 14.4466H1.16439V5.99707H13.8377V14.4466H13.8367Z" fill="#00BABA"/>
<path d="M3.78848 3.66576C4.36332 3.66576 4.82948 3.2032 4.82948 2.62733V1.54049C4.82948 0.963583 4.36332 0.5 3.78848 0.5C3.21364 0.5 2.74902 0.963583 2.74902 1.54049V2.62785C2.74902 3.2032 3.21312 3.66576 3.78848 3.66576Z" fill="#00BABA"/>
<path d="M7.05684 7.13075H5.39258V8.5998H7.05684V7.13075Z" fill="#00BABA"/>
<path d="M9.74882 7.13075H8.08301V8.5998H9.74882V7.13075Z" fill="#00BABA"/>
<path d="M12.2434 7.13075H10.5791V8.5998H12.2434V7.13075Z" fill="#00BABA"/>
<path d="M7.05684 9.57025H5.39258V11.0383H7.05684V9.57025Z" fill="#00BABA"/>
<path d="M9.74882 9.57025H8.08301V11.0383H9.74882V9.57025Z" fill="#00BABA"/>
<path d="M12.2434 9.57025H10.5791V11.0383H12.2434V9.57025Z" fill="#00BABA"/>
<path d="M7.05684 12.0581H5.39258V13.5261H7.05684V12.0581Z" fill="#00BABA"/>
<path d="M4.41226 9.57025H2.74902V11.0383H4.41226V9.57025Z" fill="#00BABA"/>
<path d="M4.41226 12.0581H2.74902V13.5261H4.41226V12.0581Z" fill="#00BABA"/>
<path d="M9.74882 12.0581H8.08301V13.5261H9.74882V12.0581Z" fill="#00BABA"/>
<path d="M12.2434 12.0581H10.5791V13.5261H12.2434V12.0581Z" fill="#00BABA"/>
</g>
<defs>
<clipPath id="clip0_40_103">
<rect width="15" height="15" fill="white" transform="translate(0 0.5)"/>
</clipPath>
</defs>
</svg>
