<svg width="20" height="20" viewBox="0 0 20 20" fill="none" xmlns="http://www.w3.org/2000/svg">
<circle cx="10" cy="10" r="10" fill="#00BABA"/>
<path d="M5.26715 7.86059L5.10761 7.74237V7.94094V12.7994C5.10761 12.8842 5.16352 12.9462 5.21822 12.9817C5.27534 13.0188 5.3487 13.0401 5.4243 13.0401H14.5757C14.6513 13.0401 14.7247 13.0188 14.7818 12.9818C14.8365 12.9463 14.8924 12.8843 14.8925 12.7996V12.7995V7.94083V7.74226L14.7329 7.86048L10.5938 10.9277C10.5271 10.9772 10.4402 11.0056 10.3495 11.0056L9.65043 11.0056C9.55957 11.0056 9.4728 10.9772 9.40611 10.9277L9.4061 10.9277L5.26715 7.86059ZM9.94035 10.1334L10 10.1778L10.0597 10.1334L14.0853 7.14016L14.3277 6.95992H14.0257H5.97437H5.67228L5.9147 7.14016L9.94035 10.1334ZM5.4243 6.1H14.5757C15.3225 6.1 15.9 6.60914 15.9 7.20058V12.7994C15.9 13.3909 15.3225 13.9 14.5757 13.9H5.4243C4.67748 13.9 4.1 13.3909 4.1 12.7994V7.20058C4.1 6.60915 4.67748 6.1 5.4243 6.1Z" fill="white" stroke="#00BABA" stroke-width="0.2"/>
</svg>
