<svg width="20" height="20" viewBox="0 0 20 20" fill="none" xmlns="http://www.w3.org/2000/svg">
<path d="M10 0C15.5142 0 20 4.48578 20 10C20 15.5142 15.5142 20 10 20C4.48578 20 0 15.5142 0 10C0 4.48578 4.48578 0 10 0Z" fill="#00BABA"/>
<g clip-path="url(#clip0_87_3)">
<path d="M11.6189 15.437L14.7137 5.14012C14.7517 5.01451 14.6806 4.88194 14.555 4.844C14.4944 4.82572 14.429 4.83234 14.3734 4.8624L4.74803 10.0388C4.6621 10.0851 4.61322 10.1793 4.62477 10.2762C4.63638 10.3731 4.70615 10.4531 4.80065 10.4778L9.09275 11.5966L11.1818 15.4811C11.2437 15.5968 11.3877 15.6403 11.5034 15.5784C11.5592 15.5485 11.6007 15.4977 11.6189 15.437Z" fill="white"/>
</g>
<defs>
<clipPath id="clip0_87_3">
<rect width="11.4044" height="11.4044" fill="white" transform="translate(13.7949 3.28506) rotate(61.729)"/>
</clipPath>
</defs>
</svg>
