<svg width="20" height="20" viewBox="0 0 20 20" fill="none" xmlns="http://www.w3.org/2000/svg">
<g clip-path="url(#clip0_2177_1329)">
<path d="M19.4872 16.2261L3.81314 0.551998C3.12955 -0.131591 2.02128 -0.131591 1.33876 0.551998L0.512691 1.37679C-0.170897 2.06059 -0.170897 3.16886 0.512691 3.85138L16.1867 19.5254C16.8705 20.209 17.9788 20.209 18.6613 19.5254L19.4861 18.7006C20.171 18.0181 20.171 16.9096 19.4872 16.2261Z" fill="white"/>
<path d="M16.1867 0.552021L0.51269 16.2261C-0.170897 16.9097 -0.170897 18.0181 0.51269 18.7007L1.33748 19.5255C2.02128 20.2091 3.12955 20.2091 3.81207 19.5255L19.4871 3.85247C20.1709 3.16889 20.1709 2.06062 19.4871 1.3781L18.6624 0.553303C17.9788 -0.131568 16.8705 -0.131568 16.1867 0.552021Z" fill="white"/>
</g>
<defs>
<clipPath id="clip0_2177_1329">
<rect width="20" height="20" fill="white"/>
</clipPath>
</defs>
</svg>
