<svg width="29" height="29" viewBox="0 0 29 29" fill="none" xmlns="http://www.w3.org/2000/svg">
<path d="M9.6668 20.7834H8.70013C8.43321 20.7834 8.2168 20.9999 8.2168 21.2668C8.2168 21.5337 8.43321 21.7501 8.70013 21.7501H9.6668C9.93372 21.7501 10.1501 21.5337 10.1501 21.2668C10.1501 20.9999 9.93372 20.7834 9.6668 20.7834Z" fill="#757575"/>
<path d="M23.1995 20.7834H11.5995C11.3326 20.7834 11.1162 20.9999 11.1162 21.2668C11.1162 21.5337 11.3326 21.7501 11.5995 21.7501H23.1995C23.4665 21.7501 23.6829 21.5337 23.6829 21.2668C23.6829 20.9999 23.4665 20.7834 23.1995 20.7834Z" fill="#757575"/>
<path d="M9.6668 17.8833H8.70013C8.43321 17.8833 8.2168 18.0997 8.2168 18.3666C8.2168 18.6336 8.43321 18.85 8.70013 18.85H9.6668C9.93372 18.85 10.1501 18.6336 10.1501 18.3666C10.1501 18.0997 9.93372 17.8833 9.6668 17.8833Z" fill="#757575"/>
<path d="M23.1995 17.8833H11.5995C11.3326 17.8833 11.1162 18.0997 11.1162 18.3666C11.1162 18.6336 11.3326 18.85 11.5995 18.85H23.1995C23.4665 18.85 23.6829 18.6336 23.6829 18.3666C23.6829 18.0997 23.4665 17.8833 23.1995 17.8833Z" fill="#757575"/>
<path d="M9.6668 14.9834H8.70013C8.43321 14.9834 8.2168 15.1998 8.2168 15.4667C8.2168 15.7337 8.43321 15.9501 8.70013 15.9501H9.6668C9.93372 15.9501 10.1501 15.7337 10.1501 15.4667C10.1501 15.1998 9.93372 14.9834 9.6668 14.9834Z" fill="#757575"/>
<path d="M23.1995 14.9834H11.5995C11.3326 14.9834 11.1162 15.1998 11.1162 15.4667C11.1162 15.7337 11.3326 15.9501 11.5995 15.9501H23.1995C23.4665 15.9501 23.6829 15.7337 23.6829 15.4667C23.6829 15.1998 23.4665 14.9834 23.1995 14.9834Z" fill="#757575"/>
<path d="M9.6668 12.0833H8.70013C8.43321 12.0833 8.2168 12.2997 8.2168 12.5666C8.2168 12.8335 8.43321 13.0499 8.70013 13.0499H9.6668C9.93372 13.0499 10.1501 12.8335 10.1501 12.5666C10.1501 12.2997 9.93372 12.0833 9.6668 12.0833Z" fill="#757575"/>
<path d="M23.1995 12.0833H11.5995C11.3326 12.0833 11.1162 12.2997 11.1162 12.5666C11.1162 12.8335 11.3326 13.0499 11.5995 13.0499H23.1995C23.4665 13.0499 23.6829 12.8335 23.6829 12.5666C23.6829 12.2997 23.4665 12.0833 23.1995 12.0833Z" fill="#757575"/>
<path d="M9.6668 9.18335H8.70013C8.43321 9.18335 8.2168 9.39976 8.2168 9.66668C8.2168 9.9336 8.43321 10.15 8.70013 10.15H9.6668C9.93372 10.15 10.1501 9.9336 10.1501 9.66668C10.1501 9.39976 9.93372 9.18335 9.6668 9.18335Z" fill="#757575"/>
<path d="M23.1995 9.18335H11.5995C11.3326 9.18335 11.1162 9.39976 11.1162 9.66668C11.1162 9.9336 11.3326 10.15 11.5995 10.15H23.1995C23.4665 10.15 23.6829 9.9336 23.6829 9.66668C23.6829 9.39976 23.4665 9.18335 23.1995 9.18335Z" fill="#757575"/>
<path d="M26.5774 7.21955C26.575 7.1772 26.5667 7.13539 26.5527 7.09533C26.5474 7.07987 26.5435 7.06488 26.5368 7.0499C26.5133 6.99734 26.4805 6.94937 26.4401 6.90828L19.6734 0.141617C19.6324 0.101198 19.5844 0.0684521 19.5318 0.04495C19.5168 0.0381833 19.5019 0.0343167 19.4869 0.029C19.4465 0.0151042 19.4043 0.00664583 19.3617 0.00386667C19.3535 0.00531667 19.3443 0 19.3337 0H5.80033C5.5334 0 5.31699 0.216412 5.31699 0.483333V1.93333H2.90033C2.6334 1.93333 2.41699 2.14975 2.41699 2.41667V28.5167C2.41699 28.7836 2.6334 29 2.90033 29H23.2003C23.4672 29 23.6837 28.7836 23.6837 28.5167V26.1H26.1003C26.3672 26.1 26.5837 25.8836 26.5837 25.6167V7.25C26.5837 7.23937 26.5783 7.23018 26.5774 7.21955ZM19.817 1.6501L24.9336 6.76667H19.817V1.6501ZM22.717 28.0333H3.38366V2.9H5.31699V25.6167C5.31699 25.8836 5.5334 26.1 5.80033 26.1H22.717V28.0333ZM25.617 25.1333H6.28366V0.966667H18.8503V7.25C18.8503 7.51692 19.0667 7.73333 19.3337 7.73333H25.617V25.1333Z" fill="#757575"/>
<path d="M11.6001 4.3501H8.70013C8.43321 4.3501 8.2168 4.56651 8.2168 4.83343V7.73343C8.2168 8.00035 8.43321 8.21676 8.70013 8.21676H11.6001C11.8671 8.21676 12.0835 8.00035 12.0835 7.73343V4.83343C12.0835 4.56651 11.8671 4.3501 11.6001 4.3501ZM11.1168 7.2501H9.18346V5.31676H11.1168V7.2501Z" fill="#757575"/>
</svg>
