<svg width="36" height="36" viewBox="0 0 36 36" fill="none" xmlns="http://www.w3.org/2000/svg">
<path d="M18.0013 14.04C17.481 14.04 16.9658 14.1425 16.4851 14.3416C16.0045 14.5407 15.5677 14.8325 15.1998 15.2004C14.832 15.5683 14.5401 16.005 14.341 16.4857C14.1419 16.9663 14.0395 17.4815 14.0395 18.0018C14.0395 18.5221 14.1419 19.0372 14.341 19.5179C14.5401 19.9986 14.832 20.4353 15.1998 20.8032C15.5677 21.1711 16.0045 21.4629 16.4851 21.662C16.9658 21.8611 17.481 21.9636 18.0013 21.9636C19.052 21.9634 20.0596 21.5457 20.8024 20.8026C21.5452 20.0594 21.9624 19.0516 21.9622 18.0009C21.9619 16.9502 21.5443 15.9426 20.8011 15.1997C20.058 14.4569 19.0502 14.0398 17.9995 14.04H18.0013ZM5.40125 14.04C4.88098 14.04 4.36581 14.1425 3.88514 14.3416C3.40447 14.5407 2.96772 14.8325 2.59984 15.2004C2.23195 15.5683 1.94013 16.005 1.74103 16.4857C1.54193 16.9663 1.43945 17.4815 1.43945 18.0018C1.43945 18.5221 1.54193 19.0372 1.74103 19.5179C1.94013 19.9986 2.23195 20.4353 2.59984 20.8032C2.96772 21.1711 3.40447 21.4629 3.88514 21.662C4.36581 21.8611 4.88098 21.9636 5.40125 21.9636C6.45199 21.9634 7.45959 21.5457 8.20241 20.8026C8.94522 20.0594 9.36239 19.0516 9.36215 18.0009C9.36191 16.9502 8.94428 15.9426 8.20113 15.1997C7.45798 14.4569 6.45019 14.0398 5.39945 14.04H5.40125ZM30.6013 14.04C30.081 14.04 29.5658 14.1425 29.0851 14.3416C28.6045 14.5407 28.1677 14.8325 27.7998 15.2004C27.4319 15.5683 27.1401 16.005 26.941 16.4857C26.7419 16.9663 26.6395 17.4815 26.6395 18.0018C26.6395 18.5221 26.7419 19.0372 26.941 19.5179C27.1401 19.9986 27.4319 20.4353 27.7998 20.8032C28.1677 21.1711 28.6045 21.4629 29.0851 21.662C29.5658 21.8611 30.081 21.9636 30.6013 21.9636C31.652 21.9634 32.6596 21.5457 33.4024 20.8026C34.1452 20.0594 34.5624 19.0516 34.5622 18.0009C34.5619 16.9502 34.1443 15.9426 33.4011 15.1997C32.658 14.4569 31.6502 14.0398 30.5995 14.04H30.6013Z" fill="white"/>
</svg>
