<svg width="25" height="25" viewBox="0 0 25 25" fill="none" xmlns="http://www.w3.org/2000/svg">
<path d="M16.5718 12.6565L24.9999 19.1665V5.87164L16.5718 12.6565Z" fill="#757575"/>
<path d="M0 5.87164V19.1665L8.42813 12.6565L0 5.87164Z" fill="#757575"/>
<path d="M23.4375 2H1.5625C0.782813 2 0.164063 2.71018 0.046875 3.62464L12.5 13.6493L24.9531 3.62464C24.8359 2.71018 24.2172 2 23.4375 2Z" fill="#757575"/>
<path d="M15.1409 13.8096L12.93 15.5889C12.7987 15.6939 12.6503 15.7455 12.5003 15.7455C12.3503 15.7455 12.2019 15.6939 12.0706 15.5889L9.85967 13.8077L0.050293 21.3887C0.170605 22.2956 0.78623 23 1.56279 23H23.4378C24.2144 23 24.83 22.2956 24.9503 21.3887L15.1409 13.8096Z" fill="#757575"/>
</svg>
