<svg width="30" height="30" viewBox="0 0 30 30" fill="none" xmlns="http://www.w3.org/2000/svg">
<path d="M21.4883 3.5823H21.4936C25.6393 3.5823 29 6.94297 29 11.0886C29 12.8444 28.2412 14.6583 26.9787 16.4473C25.7209 18.2296 24.0173 19.9098 22.2622 21.3767C18.9807 24.1192 15.6305 26.0245 15.0003 26.3718C14.3736 26.0231 11.0227 24.0924 7.73958 21.3354C5.98361 19.8609 4.27906 18.1764 3.02057 16.3982C1.7565 14.6121 1 12.8132 1 11.0886C1 6.94296 4.36066 3.5823 8.50628 3.5823V3.58236L8.51809 3.58223C10.7228 3.5562 12.8216 4.52587 14.2309 6.22146L14.9949 7.14068L15.7649 6.2264C17.1857 4.53921 19.2826 3.57049 21.4883 3.5823Z" stroke="#FFB11B" stroke-width="2"/>
</svg>
