<svg width="27" height="26" viewBox="0 0 27 26" fill="none" xmlns="http://www.w3.org/2000/svg">
<path d="M21.5513 6.02732C21.2401 4.93989 20.2382 4.14169 19.0525 4.14169C17.8668 4.14169 16.8647 4.93989 16.5533 6.02732H1.25781V7.45549H16.5535C16.8647 8.54274 17.8668 9.34122 19.0525 9.34122C20.2382 9.34122 21.2401 8.54274 21.5514 7.45549H25.6295V6.02732H21.5513Z" fill="white"/>
<path d="M5.83484 10.1154C4.64915 10.1154 3.64702 10.9138 3.33598 12.0011H1.25781V13.4293H3.33598C3.64702 14.5168 4.64925 15.3151 5.83494 15.3151C7.02063 15.3151 8.02276 14.5168 8.33389 13.4293H25.6295V12.0011H8.33389C8.02276 10.9138 7.02053 10.1154 5.83484 10.1154Z" fill="white"/>
<path d="M13.844 16.0894C12.6583 16.0894 11.656 16.8877 11.3449 17.9752H1.25781V19.4033H11.3449C11.656 20.4904 12.6583 21.2891 13.844 21.2891C15.0296 21.2891 16.0318 20.4904 16.3429 19.4033H25.6295V17.9752H16.3429C16.0318 16.8877 15.0296 16.0894 13.844 16.0894Z" fill="white"/>
</svg>
