<svg width="24" height="24" viewBox="0 0 24 24" fill="none" xmlns="http://www.w3.org/2000/svg">
<path d="M6.92286 12C6.92286 11.7756 7.012 11.5604 7.17068 11.4017C7.32936 11.243 7.54457 11.1539 7.76898 11.1539H15.3841V5.65408C15.3841 3.96184 13.5972 2.69266 11.9996 2.69266H3.96143C3.17627 2.6935 2.4235 3.00577 1.86831 3.56097C1.31312 4.11616 1.00084 4.86892 1 5.65408V18.3459C1.00084 19.1311 1.31312 19.8838 1.86831 20.439C2.4235 20.9942 3.17627 21.3065 3.96143 21.3073H12.4227C13.2078 21.3065 13.9606 20.9942 14.5158 20.439C15.071 19.8838 15.3832 19.1311 15.3841 18.3459V12.8461H7.76898C7.54457 12.8461 7.32936 12.757 7.17068 12.5983C7.012 12.4396 6.92286 12.2244 6.92286 12Z" fill="#FFB11B"/>
<path d="M22.7538 11.4019L18.5232 7.17129C18.3632 7.01931 18.1502 6.93584 17.9296 6.93866C17.7089 6.94149 17.4981 7.03039 17.3421 7.18641C17.1861 7.34244 17.0972 7.55324 17.0943 7.77388C17.0915 7.99452 17.175 8.20753 17.327 8.3675L20.1128 11.1539H15.3867V12.8461H20.1128L17.327 15.6325C17.2451 15.7103 17.1796 15.8037 17.1344 15.9072C17.0892 16.0107 17.0652 16.1222 17.0637 16.2351C17.0623 16.348 17.0834 16.4601 17.126 16.5647C17.1685 16.6693 17.2316 16.7644 17.3115 16.8442C17.3913 16.9241 17.4864 16.9872 17.591 17.0297C17.6956 17.0723 17.8077 17.0934 17.9206 17.092C18.0335 17.0905 18.145 17.0665 18.2485 17.0213C18.352 16.9761 18.4454 16.9106 18.5232 16.8287L22.7538 12.5981C22.9124 12.4394 23.0014 12.2243 23.0014 12C23.0014 11.7757 22.9124 11.5606 22.7538 11.4019Z" fill="#FFB11B"/>
</svg>
