<svg width="20" height="26" viewBox="0 0 20 26" fill="none" xmlns="http://www.w3.org/2000/svg">
<path d="M18.4339 14.3969L14.6536 8.40476C15.1892 8.12014 15.5556 7.55221 15.5556 6.89907C15.5556 6.18418 15.1167 5.57134 14.4972 5.32048L15.6424 1.27204C15.6918 1.09738 15.6437 0.909415 15.5167 0.780958C14.7548 0.0107118 13.5154 0.0107118 12.7536 0.780958C12.5713 0.965219 12.3291 1.06667 12.0714 1.06667C11.8137 1.06667 11.5714 0.965219 11.3881 0.779758L11.3856 0.777307C10.6265 0.00966173 9.3892 0.0075116 8.62705 0.772757L8.61285 0.787058C8.23667 1.16473 7.62569 1.16363 7.2509 0.784608L7.24729 0.780958C6.48548 0.0107118 5.24601 0.0107118 4.4842 0.780958C4.35711 0.909515 4.30899 1.09763 4.35849 1.27239L5.50618 5.31953C4.88536 5.56974 4.44528 6.18323 4.44528 6.89912C4.44528 7.55226 4.81162 8.12019 5.34729 8.40481L1.56693 14.3969C0.104432 16.7151 0.0117593 19.5385 1.31902 21.9496C2.62629 24.3607 5.03025 25.8002 7.74967 25.8002H12.2511C14.9705 25.8002 17.3744 24.3607 18.6817 21.9496C19.989 19.5385 19.8964 16.7151 18.4339 14.3969ZM6.54789 1.4881L6.5515 1.49175C7.31068 2.25935 8.54797 2.26145 9.31008 1.4963L9.32427 1.482C9.7004 1.10433 10.3114 1.10543 10.6874 1.4856L10.6898 1.48805C11.4516 2.2583 12.6911 2.2583 13.4529 1.48805C13.7628 1.17463 14.233 1.11948 14.5993 1.32259L13.5029 5.19897H6.50096L5.40164 1.32254C5.76798 1.11948 6.23797 1.17473 6.54789 1.4881ZM17.8145 21.4689C16.6835 23.5548 14.6038 24.8002 12.2511 24.8002H7.74972C5.39709 24.8002 3.31733 23.5549 2.18636 21.4689C1.0554 19.383 1.13556 16.9403 2.40079 14.9347L6.39775 8.59917H7.77509C8.04821 8.59917 8.26961 8.37531 8.26961 8.09914C8.26961 7.82298 8.04821 7.59911 7.77509 7.59911H6.12665C5.74488 7.59911 5.43432 7.28509 5.43432 6.89907C5.43432 6.51305 5.74488 6.19903 6.12665 6.19903H6.12828H13.8742C14.2559 6.19903 14.5665 6.51305 14.5665 6.89907C14.5665 7.28509 14.2559 7.59911 13.8742 7.59911H12.2258C11.9526 7.59911 11.7312 7.82298 11.7312 8.09914C11.7312 8.37531 11.9526 8.59917 12.2258 8.59917H13.6031L17.6001 14.9347C18.8653 16.9403 18.9455 19.3829 17.8145 21.4689Z" fill="#08827C"/>
<path d="M10.8722 16.5308C10.7481 16.4865 10.6214 16.4403 10.4949 16.3924V14.1261C10.8301 14.2259 11.0541 14.3876 11.0636 14.3946C11.2811 14.5594 11.5897 14.5157 11.7541 14.2963C11.919 14.0762 11.8762 13.7626 11.6586 13.5958C11.6295 13.5735 11.1697 13.2284 10.4949 13.0978V12.6001C10.4949 12.324 10.2735 12.1001 10.0003 12.1001C9.72721 12.1001 9.50581 12.324 9.50581 12.6001V13.0942C9.42204 13.1104 9.33713 13.131 9.25108 13.1571C8.55509 13.3686 8.03486 13.9704 7.89337 14.7278C7.76425 15.4193 7.98338 16.0863 8.46524 16.4684C8.72674 16.6758 9.05347 16.8651 9.50581 17.0662V19.9662C9.11637 19.9413 8.85586 19.8517 8.42157 19.5644C8.19305 19.4132 7.8865 19.478 7.73701 19.7092C7.58746 19.9403 7.65155 20.2501 7.88012 20.4013C8.5134 20.8202 8.9422 20.9389 9.50581 20.9669V21.484C9.50581 21.7602 9.72721 21.984 10.0003 21.984C10.2735 21.984 10.4949 21.7602 10.4949 21.484V20.915C11.5538 20.6805 12.1732 19.787 12.3121 18.9511C12.4938 17.8583 11.9286 16.9083 10.8722 16.5308ZM9.07563 15.6815C8.88553 15.5307 8.80493 15.2363 8.86526 14.9133C8.92074 14.6161 9.11845 14.2579 9.50581 14.1253V15.9566C9.34321 15.8689 9.19649 15.7773 9.07563 15.6815ZM11.3367 18.7852C11.2655 19.2135 10.9796 19.6678 10.4948 19.8685V17.4564C10.5109 17.4622 10.5262 17.4678 10.5425 17.4737C11.4292 17.7905 11.3746 18.5577 11.3367 18.7852Z" fill="#08827C"/>
<path d="M10.0023 8.59919C10.1324 8.59919 10.26 8.54569 10.352 8.45268C10.4439 8.35967 10.4969 8.23066 10.4969 8.09915C10.4969 7.96765 10.4439 7.83864 10.352 7.74563C10.26 7.65263 10.1324 7.59912 10.0023 7.59912C9.87228 7.59912 9.74469 7.65263 9.65271 7.74563C9.56073 7.83864 9.50781 7.96765 9.50781 8.09915C9.50781 8.23066 9.56073 8.35967 9.65271 8.45268C9.74469 8.54569 9.87223 8.59919 10.0023 8.59919Z" fill="#08827C"/>
</svg>
