<svg width="67" height="61" viewBox="0 0 67 61" fill="none" xmlns="http://www.w3.org/2000/svg">
<path d="M34.8166 25.2065L34.8066 25.7064L34.8166 25.2065ZM59.8541 59.9912C60.0761 60.1555 60.3892 60.1088 60.5535 59.8869L63.2314 56.2704C63.3957 56.0485 63.349 55.7354 63.1271 55.571C62.9051 55.4067 62.592 55.4534 62.4277 55.6753L60.0474 58.89L56.8327 56.5097C56.6108 56.3454 56.2977 56.3921 56.1333 56.614C55.969 56.8359 56.0157 57.149 56.2376 57.3134L59.8541 59.9912ZM1.28832 1.09892C0.851976 1.34306 0.852001 1.3431 0.85203 1.34315C0.852045 1.34318 0.852079 1.34324 0.852108 1.34329C0.852168 1.3434 0.852244 1.34354 0.852335 1.3437C0.852517 1.34402 0.852762 1.34446 0.85307 1.34501C0.853686 1.34611 0.854552 1.34765 0.855668 1.34963C0.857901 1.35359 0.861133 1.35932 0.865362 1.36678C0.873821 1.38169 0.886264 1.40354 0.902659 1.43207C0.935449 1.48912 0.984051 1.57291 1.0482 1.68144C1.1765 1.8985 1.36703 2.21461 1.61768 2.61391C2.11893 3.41244 2.86095 4.54422 3.82698 5.88238L4.63778 5.29706C3.68597 3.9786 2.95596 2.86498 2.46464 2.08226C2.21901 1.69095 2.03311 1.38247 1.90907 1.1726C1.84704 1.06767 1.80049 0.987407 1.76967 0.933778C1.75426 0.906963 1.74278 0.886809 1.73527 0.873561C1.73151 0.866937 1.72875 0.86204 1.72698 0.858901C1.7261 0.857332 1.72546 0.856201 1.72508 0.855514C1.72488 0.855171 1.72475 0.854939 1.72469 0.854817C1.72465 0.854757 1.72463 0.854724 1.72463 0.854718C1.72463 0.854716 1.72464 0.854733 1.72464 0.854732C1.72465 0.854756 1.72467 0.854787 1.28832 1.09892ZM10.8556 14.1131C13.2948 16.5155 16.1414 18.8921 19.3465 20.8626L19.8703 20.0107C16.7438 18.0886 13.956 15.7631 11.5573 13.4006L10.8556 14.1131ZM29.3778 25.0454C31.1246 25.4364 32.9359 25.6688 34.8066 25.7064L34.8267 24.7066C33.0262 24.6704 31.2813 24.4468 29.5962 24.0696L29.3778 25.0454ZM34.8066 25.7064C36.7762 25.746 38.5952 26.1116 40.276 26.7367L40.6246 25.7994C38.84 25.1357 36.91 24.7485 34.8267 24.7066L34.8066 25.7064ZM49.1166 33.4661C51.4796 36.3863 53.3646 39.8318 54.8492 43.2581L55.7668 42.8606C54.2591 39.381 52.3314 35.8492 49.894 32.837L49.1166 33.4661ZM58.482 54.0908C58.9033 55.7609 59.1975 57.1569 59.3863 58.1341C59.4806 58.6227 59.5486 59.0065 59.5928 59.2674C59.6149 59.3978 59.6311 59.4975 59.6418 59.5642C59.6471 59.5976 59.651 59.6227 59.6535 59.6393C59.6548 59.6476 59.6557 59.6537 59.6563 59.6577C59.6566 59.6597 59.6569 59.6612 59.657 59.6621C59.6571 59.6625 59.6571 59.6628 59.6571 59.663C59.6571 59.6631 59.6572 59.6632 59.6572 59.6632C59.6572 59.6632 59.6572 59.6632 59.6572 59.6632C59.6572 59.6632 59.6572 59.6631 60.1517 59.5894C60.6462 59.5156 60.6462 59.5156 60.6462 59.5155C60.6462 59.5155 60.6462 59.5154 60.6462 59.5154C60.6462 59.5153 60.6461 59.5151 60.6461 59.5149C60.6461 59.5146 60.646 59.514 60.6459 59.5134C60.6457 59.5121 60.6454 59.5103 60.645 59.5079C60.6443 59.5031 60.6433 59.4962 60.6419 59.4871C60.6391 59.4689 60.6349 59.4422 60.6293 59.4072C60.6182 59.3372 60.6015 59.2341 60.5787 59.1001C60.5333 58.8323 60.464 58.441 60.3681 57.9445C60.1764 56.9516 59.8782 55.5371 59.4516 53.8462L58.482 54.0908ZM34.8166 25.2065L34.7965 26.2063L34.8166 25.2065ZM59.5566 60.3931C60.0005 60.7217 60.6267 60.6283 60.9554 60.1845L66.311 52.9514C66.6397 52.5076 66.5463 51.8813 66.1024 51.5527C65.6586 51.224 65.0324 51.3174 64.7037 51.7613L59.9431 58.1906L53.5137 53.43C53.0699 53.1014 52.4436 53.1948 52.115 53.6386C51.7863 54.0825 51.8797 54.7087 52.3236 55.0374L59.5566 60.3931ZM1.28832 1.09892C0.415629 1.58719 0.415676 1.58727 0.415727 1.58736C0.415749 1.5874 0.415803 1.5875 0.415847 1.58758C0.415936 1.58774 0.41604 1.58792 0.41616 1.58814C0.416399 1.58857 0.416702 1.58911 0.417067 1.58976C0.417798 1.59106 0.41878 1.5928 0.420012 1.59499C0.422477 1.59937 0.425944 1.60551 0.430409 1.61339C0.43934 1.62914 0.452266 1.65183 0.469154 1.68121C0.502929 1.73998 0.552555 1.82552 0.617773 1.93586C0.748199 2.15652 0.941038 2.47644 1.1942 2.87974C1.70041 3.68617 2.44843 4.82703 3.42158 6.17505L5.04318 5.0044C4.09849 3.69579 3.37448 2.59125 2.88812 1.81644C2.645 1.42912 2.46142 1.12445 2.3395 0.918184C2.27854 0.815057 2.23301 0.73655 2.20317 0.684632C2.18825 0.658673 2.17726 0.639365 2.17022 0.626953C2.1667 0.620746 2.16417 0.616265 2.16264 0.613538C2.16187 0.612174 2.16135 0.611249 2.16108 0.610768C2.16095 0.610526 2.16087 0.610396 2.16086 0.610377C2.16086 0.610367 2.16087 0.610385 2.16089 0.610431C2.1609 0.610455 2.16094 0.61051 2.16094 0.610522C2.16098 0.610583 2.16102 0.610653 1.28832 1.09892ZM10.5047 14.4693C12.9641 16.8916 15.8402 19.2939 19.0847 21.2885L20.1321 19.5848C17.045 17.6868 14.2866 15.387 11.9082 13.0444L10.5047 14.4693ZM29.2685 25.5333C31.0462 25.9313 32.8907 26.168 34.7965 26.2063L34.8367 24.2067C33.0713 24.1712 31.3597 23.9519 29.7054 23.5816L29.2685 25.5333ZM34.7965 26.2063C36.7093 26.2448 38.4728 26.5995 40.1018 27.2053L40.7989 25.3307C38.9624 24.6478 36.977 24.2498 34.8367 24.2067L34.7965 26.2063ZM48.7279 33.7806C51.0537 36.6548 52.9173 40.0572 54.3904 43.4569L56.2256 42.6618C54.7063 39.1557 52.7573 35.5807 50.2827 32.5225L48.7279 33.7806ZM57.9972 54.2131C58.4159 55.8728 58.7081 57.2595 58.8953 58.2289C58.9889 58.7136 59.0562 59.0936 59.0999 59.351C59.1217 59.4797 59.1376 59.5777 59.148 59.6428C59.1531 59.6753 59.1569 59.6996 59.1593 59.7154C59.1606 59.7233 59.1614 59.729 59.162 59.7326C59.1623 59.7344 59.1624 59.7357 59.1625 59.7364C59.1626 59.7367 59.1626 59.737 59.1627 59.737C59.1627 59.7371 59.1627 59.7371 59.1627 59.7371C59.1626 59.7371 59.1626 59.737 59.1626 59.737C59.1626 59.7369 59.1626 59.7369 60.1517 59.5894C61.1407 59.4419 61.1407 59.4418 61.1407 59.4417C61.1407 59.4417 61.1407 59.4416 61.1407 59.4415C61.1407 59.4413 61.1406 59.4411 61.1406 59.4409C61.1405 59.4404 61.1404 59.4398 61.1403 59.4391C61.1401 59.4376 61.1398 59.4355 61.1394 59.433C61.1386 59.4278 61.1375 59.4205 61.136 59.411C61.1331 59.392 61.1288 59.3645 61.1231 59.3287C61.1117 59.257 61.0947 59.1522 61.0717 59.0165C61.0257 58.7452 60.9557 58.3502 60.8591 57.8497C60.6658 56.849 60.3656 55.4252 59.9364 53.7239L57.9972 54.2131Z" fill="#00BABA"/>
</svg>
