<svg width="25" height="25" viewBox="0 0 25 25" fill="none" xmlns="http://www.w3.org/2000/svg">
<path d="M19.079 11.1842H8.22374V6.25C8.22374 3.89204 10.1421 1.97368 12.5001 1.97368C14.858 1.97368 16.7764 3.89204 16.7764 6.25V8.22368C16.7764 8.76868 17.2182 9.21053 17.7632 9.21053C18.3082 9.21053 18.7501 8.76868 18.7501 8.22368V6.25C18.7501 2.80375 15.9463 0 12.5001 0C9.0538 0 6.25005 2.80375 6.25005 6.25V11.1842H5.9211C5.01275 11.1842 4.27637 11.9206 4.27637 12.8289V23.3553C4.27637 24.2636 5.01275 25 5.9211 25H19.079C19.9874 25 20.7237 24.2636 20.7237 23.3553V12.8289C20.7237 11.9206 19.9874 11.1842 19.079 11.1842ZM10.5264 16.7763C10.5264 15.6863 11.41 14.8026 12.5001 14.8026C13.5901 14.8026 14.4737 15.6863 14.4737 16.7763C14.4737 17.5068 14.0767 18.144 13.4869 18.4853V21.3816H11.5132V18.4853C10.9234 18.144 10.5264 17.5068 10.5264 16.7763Z" fill="#5D5D5D"/>
</svg>
