<svg width="29" height="30" viewBox="0 0 29 30" fill="none" xmlns="http://www.w3.org/2000/svg">
<path d="M14.5 0.000976562C6.49271 0.000976562 0 6.71625 0 15.0003C0 23.2844 6.49207 29.9997 14.5 29.9997C22.5086 29.9997 29 23.2844 29 15.0003C29 6.71625 22.5086 0.000976562 14.5 0.000976562ZM14.5 4.48595C17.1496 4.48595 19.2966 6.70769 19.2966 9.4473C19.2966 12.1876 17.1496 14.4086 14.5 14.4086C11.8517 14.4086 9.70467 12.1876 9.70467 9.4473C9.70467 6.70769 11.8517 4.48595 14.5 4.48595ZM14.4968 26.078C11.8543 26.078 9.43398 25.0825 7.56718 23.4346C7.11243 23.0333 6.85002 22.445 6.85002 21.8276C6.85002 19.0491 9.02381 16.8254 11.7103 16.8254H17.291C19.9781 16.8254 22.1436 19.0491 22.1436 21.8276C22.1436 22.4456 21.8825 23.0327 21.4271 23.4339C19.5609 25.0825 17.14 26.078 14.4968 26.078Z" fill="#CCCCCC"/>
</svg>
