<svg width="20" height="20" viewBox="0 0 20 20" fill="none" xmlns="http://www.w3.org/2000/svg">
<g clip-path="url(#clip0_2171_1423)">
<path d="M9.99 0.000976562C4.47 0.000976562 0 4.48098 0 10.001C0 15.521 4.47 20.001 9.99 20.001C15.52 20.001 20 15.521 20 10.001C20 4.48098 15.52 0.000976562 9.99 0.000976562ZM14 14.001C13.9075 14.0937 13.7976 14.1672 13.6766 14.2174C13.5557 14.2676 13.426 14.2934 13.295 14.2934C13.164 14.2934 13.0343 14.2676 12.9134 14.2174C12.7924 14.1672 12.6825 14.0937 12.59 14.001L9.3 10.711C9.20551 10.6184 9.13034 10.5079 9.07885 10.386C9.02735 10.2642 9.00055 10.1333 9 10.001V6.00098C9 5.45098 9.45 5.00098 10 5.00098C10.55 5.00098 11 5.45098 11 6.00098V9.59098L14 12.591C14.39 12.981 14.39 13.611 14 14.001Z" fill="#00BABA"/>
</g>
<defs>
<clipPath id="clip0_2171_1423">
<rect width="20" height="20" fill="white" transform="translate(0 0.000976562)"/>
</clipPath>
</defs>
</svg>
