<svg width="30" height="30" viewBox="0 0 30 30" fill="none" xmlns="http://www.w3.org/2000/svg">
<g clip-path="url(#clip0_72_355)">
<path d="M29.7426 0.258203C29.494 0.00953195 29.121 -0.0669328 28.7947 0.0636139L0.55251 11.3603C0.229366 11.4896 0.0129796 11.7973 0.000557715 12.1452C-0.0118055 12.493 0.182257 12.8153 0.495381 12.9672L11.6322 18.3684L17.0334 29.5052C17.1807 29.809 17.4884 30.0006 17.824 30.0006C17.8345 30.0006 17.845 30.0005 17.8554 30C18.2032 29.9877 18.511 29.7713 18.6402 29.4481L29.9371 1.20613C30.0676 0.879647 29.9912 0.506816 29.7426 0.258203ZM3.05235 12.2537L25.4718 3.28597L12.1107 16.6469L3.05235 12.2537ZM17.747 26.9483L13.3537 17.8898L26.7148 4.52886L17.747 26.9483Z" fill="#00BABA"/>
</g>
<defs>
<clipPath id="clip0_72_355">
<rect width="30" height="30" fill="white"/>
</clipPath>
</defs>
</svg>
