<svg width="18" height="18" viewBox="0 0 18 18" fill="none" xmlns="http://www.w3.org/2000/svg">
<g clip-path="url(#clip0_145_57)">
<path d="M16.125 16.5005H1.875C0.825 16.5005 0 15.6755 0 14.6255V5.62549C0 4.57549 0.825 3.75049 1.875 3.75049H16.125C17.175 3.75049 18 4.57549 18 5.62549V14.6255C18 15.6755 17.175 16.5005 16.125 16.5005ZM1.875 4.50049C1.275 4.50049 0.75 5.02549 0.75 5.62549V14.6255C0.75 15.2255 1.275 15.7505 1.875 15.7505H16.125C16.725 15.7505 17.25 15.2255 17.25 14.6255V5.62549C17.25 5.02549 16.725 4.50049 16.125 4.50049H1.875Z" fill="#FFB11B"/>
<path d="M11.625 4.50049C11.4 4.50049 11.25 4.35049 11.25 4.12549V2.62549C11.25 2.40049 11.1 2.25049 10.875 2.25049H7.125C6.9 2.25049 6.75 2.40049 6.75 2.62549V4.12549C6.75 4.35049 6.6 4.50049 6.375 4.50049C6.15 4.50049 6 4.35049 6 4.12549V2.62549C6 2.02549 6.525 1.50049 7.125 1.50049H10.875C11.475 1.50049 12 2.02549 12 2.62549V4.12549C12 4.35049 11.85 4.50049 11.625 4.50049Z" fill="#FFB11B"/>
<path d="M9.00042 10.5003C8.92542 10.5003 8.92542 10.5003 8.85042 10.5003L0.225418 7.50029C0.0754177 7.42529 -0.0745823 7.20029 0.000417724 6.97529C0.0754177 6.82529 0.300418 6.67529 0.525418 6.75029L9.00042 9.75029L17.4754 6.75029C17.7004 6.67529 17.8504 6.75029 17.9254 6.97529C18.0004 7.20029 17.9254 7.35029 17.7004 7.42529L9.07542 10.4253C9.07542 10.5003 9.07542 10.5003 9.00042 10.5003V10.5003Z" fill="#FFB11B"/>
</g>
<defs>
<clipPath id="clip0_145_57">
<rect width="18" height="18" fill="white"/>
</clipPath>
</defs>
</svg>
