<svg width="15" height="15" viewBox="0 0 15 15" fill="none" xmlns="http://www.w3.org/2000/svg">
<path d="M7.5 0C3.35769 0 0 3.35769 0 7.5C0 11.6423 3.35769 15 7.5 15C11.6423 15 15 11.6423 15 7.5C15 3.35769 11.6423 0 7.5 0ZM4.53137 4.12284L8.31743 6.68293C8.56735 6.86293 8.73636 7.13408 8.7879 7.43772C8.83945 7.74137 8.76938 8.0531 8.59287 8.30549C8.41635 8.55788 8.14757 8.73063 7.84466 8.78637C7.54176 8.84211 7.22908 8.77637 6.97428 8.60337C6.86233 8.52442 6.76476 8.42685 6.68582 8.3149L4.12572 4.52885C4.08631 4.47239 4.06803 4.40387 4.07408 4.33529C4.08013 4.26671 4.11013 4.20244 4.15881 4.15376C4.20749 4.10508 4.27176 4.07508 4.34034 4.06903C4.40892 4.06298 4.47744 4.08126 4.53389 4.12067L4.53137 4.12284ZM7.5 13.8462C4.0024 13.8462 1.15385 10.9994 1.15385 7.5C1.15087 6.64647 1.32154 5.80126 1.65547 5.01576C1.98939 4.23025 2.4796 3.52088 3.09627 2.93077C3.14423 2.88296 3.20123 2.84517 3.26394 2.81961C3.32665 2.79406 3.39383 2.78124 3.46154 2.78191C3.52926 2.78258 3.59616 2.79672 3.65836 2.82352C3.72055 2.85031 3.77679 2.88921 3.8238 2.93797C3.8708 2.98672 3.90763 3.04434 3.93213 3.10747C3.95664 3.1706 3.96833 3.23797 3.96653 3.30567C3.96473 3.37337 3.94947 3.44003 3.92164 3.50176C3.89382 3.5635 3.85398 3.61908 3.80445 3.66526C3.28697 4.16057 2.87561 4.75592 2.59537 5.41514C2.31513 6.07437 2.17186 6.78369 2.17428 7.5C2.17428 10.4365 4.56346 12.8257 7.5 12.8257C10.4365 12.8257 12.8257 10.4365 12.8257 7.5C12.8257 4.73546 10.7084 2.45625 8.01022 2.19952V4.18269C8.01022 4.31801 7.95646 4.44779 7.86078 4.54347C7.76509 4.63915 7.63532 4.69291 7.5 4.69291C7.36468 4.69291 7.23491 4.63915 7.13922 4.54347C7.04354 4.44779 6.98978 4.31801 6.98978 4.18269V1.66406C6.98978 1.52874 7.04354 1.39897 7.13922 1.30329C7.23491 1.2076 7.36468 1.15385 7.5 1.15385C10.9994 1.15385 13.8462 4.0024 13.8462 7.5C13.8462 10.9976 10.9994 13.8462 7.5 13.8462Z" fill="#00BABA"/>
</svg>
