<svg width="17" height="13" viewBox="0 0 17 13" fill="none" xmlns="http://www.w3.org/2000/svg">
<path d="M5.26507 10.0932L6.00502 8.75558C5.4548 8.35714 5.02474 7.85435 4.71484 7.24721C4.40495 6.64007 4.25 5.99814 4.25 5.32143C4.25 4.55618 4.44289 3.84468 4.82868 3.18694C3.38039 3.9269 2.1756 5.04315 1.21429 6.53571C2.27046 8.16741 3.62072 9.35324 5.26507 10.0932ZM8.82254 3.2154C8.91109 3.12686 8.95536 3.01934 8.95536 2.89286C8.95536 2.76637 8.91109 2.65885 8.82254 2.57031C8.734 2.48177 8.62649 2.4375 8.5 2.4375C7.70945 2.4375 7.02958 2.7221 6.46038 3.29129C5.89751 3.85417 5.61607 4.53088 5.61607 5.32143C5.61607 5.44792 5.66034 5.55543 5.74888 5.64397C5.83743 5.73251 5.94494 5.77679 6.07143 5.77679C6.19792 5.77679 6.30543 5.73251 6.39397 5.64397C6.48252 5.55543 6.52679 5.44792 6.52679 5.32143C6.52679 4.77753 6.71968 4.31269 7.10547 3.9269C7.49126 3.54111 7.9561 3.34821 8.5 3.34821C8.62649 3.34821 8.734 3.30394 8.82254 3.2154ZM12.399 1.08092C12.399 1.12519 12.3958 1.15365 12.3895 1.16629C11.7191 2.36161 10.7199 4.15458 9.39174 6.5452C8.06362 8.93583 7.06752 10.7256 6.40346 11.9146L5.93862 12.7589C5.87537 12.8601 5.78683 12.9107 5.67299 12.9107C5.5971 12.9107 5.17336 12.6894 4.40179 12.2467C4.3006 12.1834 4.25 12.0949 4.25 11.981C4.25 11.9051 4.38914 11.63 4.66741 11.1557C3.76302 10.7446 2.9282 10.1975 2.16295 9.51451C1.40402 8.83147 0.74628 8.05673 0.189732 7.19029C0.063244 6.99423 0 6.77604 0 6.53571C0 6.29539 0.063244 6.07719 0.189732 5.88114C1.15737 4.3949 2.359 3.22173 3.79464 2.36161C5.23028 1.50149 6.79874 1.07143 8.5 1.07143C9.06287 1.07143 9.63207 1.12519 10.2076 1.2327L10.7199 0.312499C10.7831 0.211309 10.8717 0.160714 10.9855 0.160714C11.0171 0.160714 11.074 0.179687 11.1562 0.217634C11.2385 0.25558 11.3365 0.306175 11.4503 0.369419C11.5642 0.426339 11.6685 0.483258 11.7634 0.540178C11.8583 0.597098 11.9563 0.65718 12.0575 0.720424C12.165 0.777343 12.2282 0.812127 12.2472 0.824776C12.3484 0.88802 12.399 0.9734 12.399 1.08092ZM12.75 5.32143C12.75 6.20052 12.5002 7.00372 12.0006 7.73103C11.5009 8.45201 10.84 8.97061 10.0179 9.28683L12.6741 4.52455C12.7247 4.80915 12.75 5.07478 12.75 5.32143ZM16.8103 5.88114C16.9368 6.09617 17 6.31436 17 6.53571C17 6.75707 16.9368 6.97526 16.8103 7.19029C16.5636 7.59505 16.2189 8.05357 15.7762 8.56585C14.8276 9.65365 13.7271 10.498 12.4749 11.0988C11.229 11.6996 9.90402 12 8.5 12L9.20201 10.7478C10.5428 10.6339 11.7824 10.2007 12.9208 9.4481C14.0655 8.6955 15.0205 7.7247 15.7857 6.53571C15.0584 5.40365 14.1667 4.47396 13.1105 3.74665L13.7081 2.68415C14.309 3.08891 14.8845 3.57273 15.4347 4.1356C15.9913 4.69847 16.4498 5.28032 16.8103 5.88114Z" fill="#757575"/>
</svg>
